/* XPM */
static char *aui3l_j2cqo[] = {
/* columns rows colors chars-per-pixel */
"28 32 158 2 ",
"   c None",
".  c #D07D00",
"X  c #D58400",
"o  c #DC8101",
"O  c #DD9200",
"+  c #DE9800",
"@  c #DB9109",
"#  c #D78414",
"$  c #DF9813",
"%  c #E58900",
"&  c #E48F0C",
"*  c #E69500",
"=  c #ED9500",
"-  c #E49B01",
";  c #EC9C00",
":  c #F29B00",
">  c #D5AB00",
",  c #DAAF00",
"<  c #DEB200",
"1  c #E5A200",
"2  c #ECA300",
"3  c #EDAB00",
"4  c #EEAA0A",
"5  c #F5A500",
"6  c #F5AB00",
"7  c #E2B600",
"8  c #EDB300",
"9  c #E6B900",
"0  c #ECBC00",
"q  c #F5B400",
"w  c #F8B500",
"e  c #F4BB00",
"r  c #F8BC00",
"t  c #D79820",
"y  c #DFAE23",
"u  c #E1B82C",
"i  c #E4B334",
"p  c #EFC100",
"a  c #EECC00",
"s  c #F5C300",
"d  c #FAC500",
"f  c #F4CD00",
"g  c #FECB00",
"h  c #FDCA00",
"j  c #FBCC00",
"k  c #F9CE00",
"l  c #FECC00",
"z  c #FFCC00",
"x  c #FECD00",
"c  c #FFCD00",
"v  c #FDCE00",
"b  c #FFCE00",
"n  c #FECE00",
"m  c #FAC900",
"M  c #ECD20B",
"N  c #F3D200",
"B  c #F3D400",
"V  c #F4D500",
"C  c #F4D600",
"Z  c #F5D600",
"A  c #F9D300",
"S  c #FAD300",
"D  c #FED000",
"F  c #FED100",
"G  c #FFD100",
"H  c #FFD000",
"J  c #FFD300",
"K  c #FBD500",
"L  c #F9D600",
"P  c #FBD700",
"I  c #FCD500",
"U  c #FED500",
"Y  c #FFD400",
"T  c #FDD600",
"R  c #FED600",
"E  c #FFD600",
"W  c #FFD700",
"Q  c #F9D200",
"!  c #F4D800",
"~  c #F6DD00",
"^  c #F5DE00",
"/  c #F6DC00",
"(  c #FBDA00",
")  c #FDD900",
"_  c #FFD900",
"`  c #F8DC00",
"'  c #FADE00",
"]  c #FFDC00",
"[  c #FEDF00",
"{  c #F8DA00",
"}  c #F6E000",
"|  c #F6E500",
" . c #F7E700",
".. c #F7E700",
"X. c #FBE100",
"o. c #FEE000",
"O. c #FEE100",
"+. c #FFE100",
"@. c #FEE200",
"#. c #FFE200",
"$. c #FFE300",
"%. c #FEE300",
"&. c #F8E600",
"*. c #FFE500",
"=. c #FDE700",
"-. c #F7EC00",
";. c #FAE900",
":. c #FCE800",
">. c #FEE800",
",. c #FDEB00",
"<. c #FEEA00",
"1. c #F8EC00",
"2. c #F9EC00",
"3. c #F9EF00",
"4. c #FEED00",
"5. c #FFED00",
"6. c #FEEE00",
"7. c #FFEE00",
"8. c #FFEF00",
"9. c #FAEA00",
"0. c #F9F000",
"q. c #F8F200",
"w. c #F8F300",
"e. c #FEF100",
"r. c #F9F400",
"t. c #F9F500",
"y. c #F9F600",
"u. c #FBF600",
"i. c #FDF400",
"p. c #FDF600",
"a. c #FEF400",
"s. c #F9F800",
"d. c #FEF900",
"f. c #FFF900",
"g. c #FEFA00",
"h. c #FFFA00",
"j. c #FEFD00",
"k. c #FEFE00",
"l. c #FEFF00",
"z. c yellow",
"x. c #FCF10F",
"c. c #FFFE0F",
"v. c #FEFE10",
"b. c #E9CC22",
"n. c #EBCD36",
"m. c #E7C739",
"M. c #FBF02B",
"N. c #FEFD2F",
"B. c #FEFE31",
"V. c #E0B640",
"C. c #E1B848",
"Z. c #EFDD43",
"A. c #EDD04E",
"S. c #F1DE5B",
"D. c #F6ED4A",
"F. c #FBF249",
"G. c #FAF651",
"H. c #FEFE54",
/* pixels */
"                      3.;.=.o.T k m                     ",
"                t.3.&.` L S L T T F c c g               ",
"              t.| f s e q q q q r g c c c c             ",
"            q.! s e e q q q 6 6 5 6 r F F c c           ",
"          q.N e e e q q q 6 6 6 5 5 6 r ) T c c         ",
"        t.B e e e q q q s 6 6 5 5 5 6 6 d o.F c g       ",
"      s.^ e e e e q q s i.p 5 5 5 6 6 q q L =.c c       ",
"      -.s e e e q q q :.z.3.2 5 6 6 q q q d :.] g c     ",
"    t.C e e e q q q S z.z.z.f 5 6 6 q q e r ` 6.c c     ",
"    -.s e e q q 6 s i.z.z.z.t.8 6 q q e r s f a.T g g   ",
"  t.^ e e q q q s =.g.g.g.g.g.} e q e r s d d X.] c c   ",
"  3.f e e e d ( :.6.6.6.6.6.6.6.:.L d s s d r k ] c c   ",
"  | 8 3 s ) o.o.o.o.o.o.o.o.o.o.o.o.] T m r e r T c c g ",
"  ^ 3 - 3 T T T T T T T T T T T T T T ) 0 O q q c g g g ",
"  C 2 ; * r c c c c c c c c c c c c c g X - q 6 h g g g ",
"  f 2 ; ; 2 g c c c c c c c c c c c c 1 X q 6 5 d m m g ",
"  f ; ; ; * r c c c c c c c c c c c s . 3 6 5 5 d m d m ",
"  f ; ; ; = 2 g c c c c c c c c c c + O 6 5 5 5 d d d d ",
"  f ; ; = = ; m F F F F F F F F F s . 2 5 5 5 6 h d d d ",
"  f 2 = = = 2 ( o.o.o.o.o.o.o.o.o.p X ; : : : 6 g s s d ",
"  S 2 = = = 5 :.i.i.i.i.a.a.a.a.i.a o ; = = = 6 m p s   ",
"  S q = = ; 5 x.v.v.v.v.v.c.c.c.c.M o = = = = w d 0 0   ",
"    r = = ; 6 M.B.B.B.B.B.B.B.N.B.b.o = = = : d 0 0 0   ",
"    d 2 = ; 4 F.H.G.Z.u y n.D.H.H.m.o = = = 6 d 9 9     ",
"      s ; ; 4 A.V.t @ - 2 - $ i S.C.o = = ; s 0 7 9     ",
"      L 8 ; 2 @ - 3 8 3 3 2 ; = & # % = = q d 7 7       ",
"        C 8 2 3 8 8 3 3 2 ; ; = = = = = 5 d 7 < <       ",
"          ^ 0 3 8 8 3 2 ; ; = = = = = 5 d 9 , ,         ",
"          3.| a 8 3 2 2 ; = = = = = 6 d 0 > >           ",
"              q.B 8 2 ; = = = ; 5 r d 9 > >             ",
"                ;.( f e q q q s d p < > >               ",
"                    S m m g m s 7 >                     "
};
