/* XPM */
static char *aycgu_e2n5d_0[] = {
/* columns rows colors chars-per-pixel */
"32 32 182 2 ",
"   c #030303",
".  c #0C0C0C",
"X  c #191504",
"o  c #1E1903",
"O  c #1D1D1D",
"+  c #151414",
"@  c #362D09",
"#  c #28271D",
"$  c #2B291E",
"%  c #26231B",
"&  c #36331F",
"*  c #272705",
"=  c #212121",
"-  c #282824",
";  c #2C2C2C",
":  c #312D20",
">  c #383322",
",  c #34342C",
"<  c #38362B",
"1  c #3E3C2C",
"2  c #3E3926",
"3  c #343434",
"4  c #383833",
"5  c #3B3B3B",
"6  c #4B3D03",
"7  c #453D19",
"8  c #423D26",
"9  c #544403",
"0  c #474710",
"q  c #4B451D",
"w  c #535217",
"e  c #635106",
"r  c #645414",
"t  c #685815",
"y  c #685818",
"u  c #7F6707",
"i  c #7D6812",
"p  c #79661A",
"a  c #757316",
"s  c #7C7418",
"d  c #534E26",
"f  c #434032",
"g  c #494430",
"h  c #6A5E24",
"j  c #696020",
"k  c #6E6A27",
"l  c #62602B",
"z  c #766D2E",
"x  c #69603B",
"c  c #434343",
"v  c #484848",
"b  c #504E44",
"n  c #836D00",
"m  c #947908",
"M  c #836D16",
"N  c #8F781E",
"B  c #837B1B",
"V  c #807721",
"C  c #CD7500",
"Z  c #CF7E00",
"A  c #858305",
"S  c #97810D",
"D  c #9D850E",
"F  c #9D9A05",
"G  c #868514",
"H  c #88881B",
"J  c #9B8012",
"K  c #999111",
"L  c #999618",
"P  c #AF8C02",
"I  c #A7880D",
"U  c #AC8C08",
"Y  c #A69E0C",
"T  c #B4930D",
"R  c #B9970A",
"E  c #BF9A05",
"W  c #A09518",
"Q  c #BFA209",
"!  c #BEB009",
"~  c #D38300",
"^  c #DC8200",
"/  c #D98A00",
"(  c #D28609",
")  c #C29D04",
"_  c #DC9200",
"`  c #DE9800",
"'  c #DE9408",
"]  c #D98514",
"[  c #C19F17",
"{  c #DE9918",
"}  c #E18300",
"|  c #E68A00",
" . c #E48E0A",
".. c #E69401",
"X. c #ED9500",
"o. c #E79C01",
"O. c #ED9B00",
"+. c #F19B00",
"@. c #C1A705",
"#. c #CCA404",
"$. c #C7AB07",
"%. c #C3A008",
"&. c #C2AC09",
"*. c #D0A704",
"=. c #D4AA04",
"-. c #D9AE00",
";. c #C4B50A",
":. c #DDB102",
">. c #C6A212",
",. c #D5AE10",
"<. c #E7A201",
"1. c #EDA401",
"2. c #E7AA01",
"3. c #ECAC00",
"4. c #F5A400",
"5. c #F5AB00",
"6. c #E2B602",
"7. c #EDB300",
"8. c #E6B902",
"9. c #EDBC00",
"0. c #F5B400",
"q. c #F5BB00",
"w. c #F9BC00",
"e. c #D89E28",
"r. c #DEAC24",
"t. c #E4BB35",
"y. c #C5C400",
"u. c #C7C10C",
"i. c #C0C014",
"p. c #EDC300",
"a. c #EDCC02",
"s. c #F5C300",
"d. c #FAC500",
"f. c #F3CC00",
"g. c #FECC00",
"h. c #EFD201",
"j. c #E3DE04",
"k. c #E9DC02",
"l. c #F2D401",
"z. c #FDD400",
"x. c #F1D900",
"c. c #F4DC00",
"v. c #FDD900",
"b. c #FFDA00",
"n. c #FEDD00",
"m. c #FED900",
"M. c #F0DE0C",
"N. c #ECE401",
"B. c #EEE901",
"V. c #F4E500",
"C. c #FEE300",
"Z. c #FEE100",
"A. c #FEE500",
"S. c #FDE200",
"D. c #F1EC02",
"F. c #FEEF00",
"G. c #FEED00",
"H. c #FEEB00",
"J. c #FBEE0F",
"K. c #FEF200",
"L. c #FEF400",
"P. c #FEFA00",
"I. c #FDF900",
"U. c #FFFE00",
"Y. c #FEFC00",
"T. c #FFFE0F",
"R. c #F5F201",
"E. c #FEFE11",
"W. c #EED926",
"Q. c #EBCC36",
"!. c #FBED29",
"~. c #FEFD2F",
"^. c #FDFD31",
"/. c #E4BF46",
"(. c #EFDD44",
"). c #EBD441",
"_. c #E7CA52",
"`. c #F1D851",
"'. c #F7EE4B",
"]. c #FAED47",
"[. c #FDFC53",
"{. c #F3E660",
/* pixels */
"5 = = = = = = = = = = $ a Y ! ;.&.Q R I t $ = = = = = = = = = 5 ",
"=   .       .     * F j.V.c.z.z.z.m.m.z.g.9.u o     .       + = ",
"= . - ; - 5 ; , a j.V.f.q.q.0.0.0.0.w.g.g.g.g.6.q 5 ; ; - c - = ",
"=   ; ; O O 4 H B.x.q.q.q.0.0.0.5.5.4.4.w.z.z.g.6.r 3 3 = - ; = ",
"=   = O     G R.a.9.q.q.0.0.0.5.5.4.4.4.4.w.n.m.g.9.2 =   . = = ",
"=   3 O   0 D.l.9.q.q.0.0.0.s.5.4.4.4.4.4.5.d.C.z.g.>.:   O 3 = ",
"= . ; 3 < i.x.9.q.q.q.0.0.q.L.p.4.4.4.4.5.0.0.m.A.g.d.N 3 v ; = ",
"=   ; 3 G D.p.9.q.q.0.0.0.A.U.K.1.4.4.5.0.0.q.s.G.n.g.6.> - ; = ",
"=   = # y.x.9.7.q.0.0.0.z.I.U.U.p.4.5.5.0.0.q.q.Z.K.g.g.9 . = = ",
"=   3 w V.p.7.0.0.0.0.q.I.U.U.U.U.7.5.0.0.q.q.s.f.K.m.g.P % 3 = ",
"= . ; L x.9.7.0.0.0.s.A.I.I.I.I.I.V.q.0.q.q.s.s.s.n.m.g.s.x ; = ",
"=   1 u.f.7.0.0.d.n.G.G.G.G.G.G.G.G.H.m.s.q.s.s.q.d.n.g.g.p ; = ",
"=   q k.7.2.s.m.C.C.C.C.C.C.C.C.C.C.C.C.C.m.f.s.q.q.m.g.g.m = = ",
"=   k c.<.<.2.m.m.m.m.m.m.m.m.m.m.m.m.m.m.m.q.~ 0.0.z.g.g.R 3 = ",
"= . s x.<.o...q.g.g.g.g.g.g.g.g.g.g.g.g.g.g.Z <.0.5.g.g.g.,.; = ",
"=   B l.o.o...<.g.g.g.g.g.g.g.g.g.g.g.g.g.7.~ 0.5.4.d.d.d.=.; = ",
"=   s f.o.o.....q.g.g.g.g.g.g.g.g.g.g.g.d.Z 5.5.4.4.d.d.d.#.= = ",
"=   V f.o.o...O.1.g.g.g.g.g.g.g.g.g.g.g.` / 5.4.4.4.d.d.d.#.3 = ",
"= . j f.o.o...X.O.d.z.z.z.z.z.z.z.z.z.d.C 1.4.4.4.4.g.s.s.[ ; = ",
"=   d a.o.....X.O.z.C.C.C.C.C.C.C.C.C.f.^ O.+.+.4.4.g.s.s.J ; = ",
"=   & $.<.....X.1.A.L.L.L.L.L.L.L.L.K.x.^ O.X.X.X.4.d.9.s.e = = ",
"=   4 S 2.....O.1.J.E.E.E.E.E.E.T.T.T.M.^ X.X.X.X.0.s.9.6.7 3 = ",
"= . ; h q.......1.!.^.^.^.^.~.~.~.~.~.W.^ X.X.X.O.s.9.9.T b ; = ",
"=   ; 1 =.3.....1.].[.[.(.t.r.Q.'.[.[.).^ X.X.X.5.d.8.8.y - ; = ",
"=   = O n 9.o.o.1.`./.e.( _ 1...{ t.{._.} X.X.O.s.s.8.*.X . = = ",
"=   3 O X @.7.o.<.' o.3.7.3.1.1.O.X. .] | X.X.5.s.6.:.i   O 3 = ",
"= . ; 3 ; z l.3.<.2.7.7.3.3.1.O.O.X.X.X.X.X.4.d.8.:.T f 3 v ; = ",
"=   ; 3 = = W c.7.2.7.7.3.1.O.O.X.X.X.X.X.+.g.9.-.*.g 3 - - ; = ",
"=   = =     < K N.p.3.3.1.1.O.X.X.X.X.X.5.d.9.=.) 6 ; -   . = = ",
"=   5 - . O c ; A N.h.7.1.O.X.X.X.X.4.q.g.9.=.E @ O c - . = 5 = ",
"= + - ; - 4 ; ; - l ;.x.s.q.0.0.0.w.g.s.:.#.M 8 - 3 ; ; - 5 = = ",
"5 = = = = = = = = = = 7 D %.:.:.*.) U m t $ = = = = = = = = = 3 "
};
