/* XPM */
static char *axhj1_i7mw4[] = {
/* columns rows colors chars-per-pixel */
"5 32 22 1 ",
"  c None",
". c #D3A900",
"X c #D4AA00",
"o c #D6AC00",
"O c #D7AC00",
"+ c #DBB000",
"@ c #DFB300",
"# c #E0B300",
"$ c #E4B700",
"% c #E9BB00",
"& c #EDBE00",
"* c #EEBF00",
"= c #F2C200",
"- c #F3C200",
"; c #F6C600",
": c #F7C600",
"> c #FBC900",
", c #FCCA00",
"< c #FCCB00",
"1 c #FDCB00",
"2 c #FECB00",
"3 c #FECC00",
/* pixels */
" 111 ",
" 1111",
"11111",
"11111",
"11111",
"11111",
"11111",
"11111",
"11111",
"11111",
"11111",
"11111",
"11111",
"11111",
"11111",
"11111",
"31111",
"11111",
"11111",
"11111",
"1>>>>",
";;;;;",
"=====",
"&&&&&",
"%%%%%",
"$$$$$",
"####@",
"+++++",
"ooooo",
".XXX.",
".XXX.",
" XXX "
};
