/* XPM */
static char *aynsc_zqh4b[] = {
/* columns rows colors chars-per-pixel */
"28 32 164 2 ",
"   c None",
".  c #CE7D00",
"X  c #D17C00",
"o  c #D47F14",
"O  c #DE8600",
"+  c #D68B00",
"@  c #DC8F00",
"#  c #DB8F09",
"$  c #DD9400",
"%  c #D89008",
"&  c #D6941B",
"*  c #E38500",
"=  c #E78E02",
"-  c #E88D00",
";  c #E69600",
":  c #ED9500",
">  c #E49B00",
",  c #EC9B00",
"<  c #E19508",
"1  c #E49C08",
"2  c #F19C00",
"3  c #E19215",
"4  c #D5AA00",
"5  c #D9AE00",
"6  c #DDB100",
"7  c #EDA300",
"8  c #E6AC00",
"9  c #EDAC00",
"0  c #F5A500",
"q  c #F5AC00",
"w  c #F8AD00",
"e  c #E3B500",
"r  c #EEB300",
"t  c #E6B900",
"y  c #ECBD00",
"u  c #E3BA08",
"i  c #F5B400",
"p  c #F8B700",
"a  c #F4BB00",
"s  c #F9BC00",
"d  c #E0A01F",
"f  c #E0B41B",
"g  c #DEAE2B",
"h  c #DAA537",
"j  c #DEAF38",
"k  c #E0B429",
"l  c #E3BB2A",
"z  c #F0BF28",
"x  c #EFC000",
"c  c #F4C300",
"v  c #FAC500",
"b  c #F5CB00",
"n  c #FBCD00",
"m  c #F9CE00",
"M  c #F8CD00",
"N  c #FDCC00",
"B  c #FECC00",
"V  c #FFCC00",
"C  c #FECD00",
"Z  c #FFCD00",
"A  c #FDCE00",
"S  c #FFCE00",
"D  c #FCCA00",
"F  c #F5D500",
"G  c #F5D400",
"H  c #F8D200",
"J  c #FAD200",
"K  c #FAD300",
"L  c #FED100",
"P  c #FFD100",
"I  c #FFD000",
"U  c #FCD200",
"Y  c #FED200",
"T  c #FFD300",
"R  c #FFD200",
"E  c #FBD500",
"W  c #FCD500",
"Q  c #FED500",
"!  c #FFD500",
"~  c #FED400",
"^  c #FDD600",
"/  c #FFD600",
"(  c #FED700",
")  c #FAD700",
"_  c #F4D800",
"`  c #F7DC00",
"'  c #F4DE00",
"]  c #FAD900",
"[  c #FBD900",
"{  c #F9DA00",
"}  c #FFD900",
"|  c #FFDB00",
" . c #F9DC00",
".. c #F9DF00",
"X. c #FFDC00",
"o. c #FEDE00",
"O. c #FEDF00",
"+. c #FADB00",
"@. c #F4C614",
"#. c #F7E100",
"$. c #F7E500",
"%. c #F6E600",
"&. c #FAE000",
"*. c #F9E200",
"=. c #FCE100",
"-. c #FEE000",
";. c #FEE100",
":. c #FFE100",
">. c #FEE200",
",. c #FFE300",
"<. c #F9E700",
"1. c #FDE400",
"2. c #FEE500",
"3. c #FFE700",
"4. c #FAE400",
"5. c #F9E900",
"6. c #F8EA00",
"7. c #FBEB00",
"8. c #FCE800",
"9. c #F8EC00",
"0. c #FAEC00",
"q. c #F9EE00",
"w. c #F9EF00",
"e. c #F8EE00",
"r. c #FAEF00",
"t. c #FCEC00",
"y. c #FDED00",
"u. c #FEEC00",
"i. c #FFEC00",
"p. c #FFED00",
"a. c #FFEF00",
"s. c #FAEE00",
"d. c #FAF100",
"f. c #FAF300",
"g. c #FEF000",
"h. c #FAF500",
"j. c #FBF600",
"k. c #FAF700",
"l. c #FEF400",
"z. c #FEF400",
"x. c #FAF800",
"c. c #FAF900",
"v. c #FAFA00",
"b. c #FEF800",
"n. c #FFF800",
"m. c #FEF900",
"M. c #FFF900",
"N. c #FEFC00",
"B. c #FEFE00",
"V. c #FFFE00",
"C. c #FEFF00",
"Z. c yellow",
"A. c #FFFE0F",
"S. c #FEFE10",
"D. c #F4C721",
"F. c #EDD83E",
"G. c #F0DD3E",
"H. c #FEFE2E",
"J. c #FEFE30",
"K. c #E8C343",
"L. c #EBD457",
"P. c #F9F54D",
"I. c #FEFF52",
"U. c #F5EB63",
/* pixels */
"                  V V n ! X.3.8.6.e.                    ",
"              V V V T ! T n v n H ' 6.d.j.              ",
"            V V V V v p i q i p p p c F e.c.            ",
"          V V T T s 0 0 q q q i p p p a c %.c.          ",
"        V V ! | s q 0 0 0 q q q i p p p a c #.c.        ",
"      V V T >.v q q 0 0 0 q 0 c p i p p p a c %.c.      ",
"      V V 3.[ p i q q 0 0 0 r j.[ i p p p a a c e.      ",
"    V V X.y.v p p i q q 0 7 ' Z.n.v i p p p a a F j.    ",
"    V V y.&.s p p p i q 0 y Z.Z.Z.y.p i p p a a c 6.    ",
"  V V ! g.M c s p p i q 9 e.Z.Z.Z.Z.[ i i p p a a F j.  ",
"  V V | >.v v c s p p s _ n.n.n.n.n.l.J p p p i a c e.  ",
"  V V X.n s v v c v E 3.y.y.y.y.y.y.y.y.3.J c i i a #.  ",
"V V V ! v p a b ! X.>.>.>.>.>.>.>.>.>.>.>.>.X.J r 9 b d.",
"V V V V p p $ 8 | ! ! ! ! ! ! ! ! ! ! ! ! ! ! v > 7 a e.",
"V V V D q i 7 . v V V V V V V V V V V V V V V 7 > 7 r 4.",
"V v v D 0 q i @ $ V V V V V V V V V V V V V p ; , , r &.",
"v v v v 0 0 q q X i V V V V V V V V V V V V , : , , 9  .",
"v v v D 0 0 0 q > + V V V V V V V V V V V i ; : , , 9  .",
"v v v D q 0 0 0 0 X r T T T T T T T T T T q : : : , r [ ",
"v c c V w 2 2 2 2 O e >.>.>.>.>.>.>.>.>.>.p : : : : i [ ",
"  c x v q : : : : O t l.g.g.l.g.g.l.l.l.l.c : : ; : s   ",
"  y y v p : : : : * u A.A.A.A.A.A.A.A.S.S.c : : ; : v   ",
"  y y y v 2 : : : * f H.H.H.H.J.J.J.J.J.J.@., : ; 7 v   ",
"    y t v q : : : * g I.I.P.G.l k F.P.I.I.D., , , p     ",
"    t e y v , : : * h U.K.d < > > % & j L.z , , 9 v     ",
"      e e v i : : - o 3 = : 7 9 9 r 9 > # 1 7 7 b       ",
"      e 6 e v 0 : : : : : : , 7 9 9 r r 9 9 7 c [       ",
"        6 5 t v 0 : : : : : : , 7 9 9 r 9 9 b &.        ",
"          5 4 y v q : : : : : : , 7 9 9 y _ e.          ",
"            4 4 t v s 0 : : : : : 7 9 c %.j.            ",
"              4 4 6 c v s i q 0 q s H 4.e.              ",
"                  4 4 e c v V v v n E                   "
};
