/* XPM */
static char *aaegt_fuc03[] = {
/* columns rows colors chars-per-pixel */
"32 32 135 2 ",
"   c #030303",
".  c #0B0C0C",
"X  c #151515",
"o  c #1D1D1D",
"O  c #211A00",
"+  c #272705",
"@  c #28271F",
"#  c #3A3212",
"$  c #38331C",
"%  c #212121",
"&  c #292721",
"*  c #2C2C2C",
"=  c #302E27",
"-  c #302F29",
";  c #32312D",
":  c #343434",
">  c #3F3C33",
",  c #3D3D3D",
"<  c #47401C",
"1  c #49401D",
"2  c #49481A",
"3  c #715D0C",
"4  c #6A5A16",
"5  c #7D6F12",
"6  c #5D5D27",
"7  c #484832",
"8  c #605427",
"9  c #6E5F22",
"0  c #665B32",
"q  c #696420",
"w  c #6A6928",
"e  c #7A7A22",
"r  c #424242",
"t  c #4F4F41",
"y  c #484848",
"u  c #937601",
"i  c #806C13",
"p  c #957D1C",
"a  c #8A7628",
"s  c #8F8C15",
"d  c #A88702",
"f  c #AD8B04",
"g  c #A4850E",
"h  c #B5930A",
"j  c #BB980B",
"k  c #A59417",
"l  c #B69312",
"z  c #A6A40D",
"x  c #BEBB12",
"c  c #DD8E00",
"v  c #C29D05",
"b  c #CC9E0B",
"n  c #DD9604",
"m  c #DE990C",
"M  c #E48D08",
"N  c #E39402",
"B  c #EC9500",
"V  c #E49E01",
"C  c #EB9B00",
"Z  c #E6950D",
"A  c #F19C00",
"S  c #E09113",
"D  c #E09B10",
"F  c #CBA304",
"G  c #C5A00F",
"H  c #C8A108",
"J  c #D1A700",
"K  c #DEA603",
"L  c #D4AA00",
"P  c #D9AE01",
"I  c #C2B909",
"U  c #C8BD08",
"Y  c #DDB202",
"T  c #D7B00D",
"R  c #CCA610",
"E  c #E6A300",
"W  c #EBA400",
"Q  c #E7A900",
"!  c #ECAC01",
"~  c #F4A600",
"^  c #F5AB00",
"/  c #E3B600",
"(  c #ECB301",
")  c #E5B901",
"_  c #ECBC00",
"`  c #F4B400",
"'  c #F5BB00",
"]  c #F9BC00",
"[  c #DDAE36",
"{  c #CFC805",
"}  c #D5CC00",
"|  c #DEC907",
" . c #D2C50C",
".. c #EDC501",
"X. c #E4CD04",
"o. c #EDCB01",
"O. c #F4C301",
"+. c #F9C300",
"@. c #F2CB01",
"#. c #F6C900",
"$. c #F1CD01",
"%. c #F9C800",
"&. c #FBC901",
"*. c #FCCA00",
"=. c #FBCF00",
"-. c #FFCC00",
";. c #EDDA01",
":. c #F1D501",
">. c #F9D000",
",. c #FFD000",
"<. c #F9D600",
"1. c #FED700",
"2. c #FADB00",
"3. c #FFD800",
"4. c #FEDD00",
"5. c #F2C615",
"6. c #FBE300",
"7. c #FEE100",
"8. c #FFE400",
"9. c #FDEB00",
"0. c #F9EF00",
"q. c #FFEE00",
"w. c #FEF100",
"e. c #FFFB00",
"r. c #FFFE00",
"t. c #FCF70A",
"y. c #FEFE0C",
"u. c #EDC12D",
"i. c #F1C722",
"p. c #EFDB3A",
"a. c #FBF529",
"s. c #FDFD2C",
"d. c #ECD250",
"f. c #FAF245",
"g. c #FDFC4B",
/* pixels */
", % % % % % % % % % % % % @ g P Y ) X.U 2 % % % % % % % % % % , ",
"%   .       .       .   O J -.-.-.1.=.:.} + .       .       X % ",
"% . * * & , * * & , * ; j -.-.-.-.` ` ` $.x ; * & , * * & r * % ",
"%   * * o o : : o o : 9 %.-.-.,.] ^ ^ ` _ ;.6 : o o : : % & * % ",
"%   % o     * %     - H -.-.-.,.^ ~ ^ ` ` o.s %     * %   . % % ",
"%   : o   X , %   X 0 %.-.-.-.=.^ ~ ^ ' ` _  .%   X , %   o : % ",
"% . * : * r : : * r p -.-.-.3.%.^ ~ ' =.` _ :.7 * r : : : y * % ",
"%   * : % % : : % % G -.-.-.8.] ` ^ @.6.` ( @.e % % : : & * * % ",
"%   % o     * %     O.-.-.-.8.] ` ~ 0.r.` ` _ z     * %   . % % ",
"%   : o   X , %   # -.-.-.*.6.] ` ` r.r.O.` _ I   X , %   o : % ",
"% . * : * r : : * a -.-.*.%.<.O.' #.e.e.2.` ( | * r : : : y * % ",
"%   * : % % : : % g -.-.*.%.%.O.%.9.q.q.q.>.` o.% % : : & * * % ",
"%   % o     * %   f -.-.%.#.+.O.4.8.8.7.7.7.O...    * %   . % % ",
"%   : o   X , %   v -.*.O.O.' ( 3.3.3.3.3.1.( _   X , %   o : % ",
"% . * : * r : : * T *.%.O.O.` V -.-.-.-.-.-.Q ( * r : : : y * % ",
"%   * : % % : : % P *.O.O.O.^ V %.-.-.-.-.*.V ! % % : : & * * % ",
"%   % o     * %   J %.O._ O.~ W ' -.-.-.-.+.C !     * %   . % % ",
"%   : o   X , %   F O.O._ _ ~ ~ E -.-.-.-.` B !   X , %   o : % ",
"% . * : * r : : * R O._ ) _ ^ ^ c -.,.,.,.^ B ! * r : : : y * % ",
"%   * : % % : : % h O._ / ) ^ A N 4.7.7.7.' B ! % % : : & * * % ",
"%   % o     * %   u _ ) / / ~ B N 9.w.w.w.O.N !     * %   . % % ",
"%   : o   X , %   3 _ / Y Y ~ B N t.y.y.y.O.N K   X , %   o : % ",
"% . * : * r : : * 0 ) / Y L ` B N a.s.s.s.5.B b * r : : : y * % ",
"%   * : % % : : % & Y Y P L ` B Z f.f.p.g.i.C l % % : : & * * % ",
"%   % o     * %     h Y L L _ B Z d.D n [ u.W i     * %   . % % ",
"%   : o   X , %   X p P L L ) ~ M S W ! V m ( <   X , %   o : % ",
"% . * : * r : : * r 8 L L L P ^ B B C ! ! Q Y : * r : : : y * % ",
"%   * : % % : : % % > h L L L ' B B C W ! ( k : % % : : & * * % ",
"%   % %     * &     * 4 J L L ) ~ B B W Q ..q &     * &   . % % ",
"%   , * . o r * . o r = d L L P +.C B C ( { t * . o r * . % , % ",
"% X * * & : * * & : * * 1 F L L ) ] ~ ! o.w * * & : * * & , % % ",
", % % % % % % % % % % % % $ f J L _ -.O.5 % % % % % % % % % % : "
};
