/* XPM */
static char *a7jhh_5plu3_0[] = {
/* columns rows colors chars-per-pixel */
"32 32 158 2 ",
"   c #030303",
".  c #0B0C0C",
"X  c #151515",
"o  c #1D1D1D",
"O  c #211A00",
"+  c #272705",
"@  c #28271F",
"#  c #3A3212",
"$  c #38331C",
"%  c #212121",
"&  c #292721",
"*  c #2C2C2C",
"=  c #302E27",
"-  c #302F29",
";  c #32312D",
":  c #343434",
">  c #3F3C33",
",  c #3D3D3D",
"<  c #47401C",
"1  c #49401D",
"2  c #49481A",
"3  c #715D0C",
"4  c #6A5A16",
"5  c #7D6F12",
"6  c #5D5D27",
"7  c #484832",
"8  c #605427",
"9  c #6E5F22",
"0  c #665B32",
"q  c #696420",
"w  c #6A6928",
"e  c #7A7A22",
"r  c #424242",
"t  c #4F4F41",
"y  c #484848",
"u  c #937601",
"i  c #806C13",
"p  c #957D1C",
"a  c #8A7628",
"s  c #8F8C15",
"d  c #A88702",
"f  c #AD8B04",
"g  c #A4850E",
"h  c #B5930A",
"j  c #BB980B",
"k  c #A59417",
"l  c #B69312",
"z  c #A6A40D",
"x  c #BEBB12",
"c  c #DD8E00",
"v  c #C29D05",
"b  c #CC9E0B",
"n  c #DD9604",
"m  c #DE990C",
"M  c #E48D08",
"N  c #E39402",
"B  c #EC9500",
"V  c #E49E01",
"C  c #EB9B00",
"Z  c #E6950D",
"A  c #F19C00",
"S  c #E09113",
"D  c #E09B10",
"F  c #CBA304",
"G  c #C5A00F",
"H  c #C8A108",
"J  c #D1A700",
"K  c #DEA603",
"L  c #D4AA00",
"P  c #D9AE01",
"I  c #C2B909",
"U  c #C8BD08",
"Y  c #DDB202",
"T  c #D7B00D",
"R  c #CCA610",
"E  c #E6A300",
"W  c #EBA400",
"Q  c #E7A900",
"!  c #ECAC01",
"~  c #F4A600",
"^  c #F5AB00",
"/  c #E3B600",
"(  c #ECB301",
")  c #E5B901",
"_  c #ECBC00",
"`  c #F4B400",
"'  c #F5BB00",
"]  c #F9BC00",
"[  c #DDAE36",
"{  c #CFC805",
"}  c #D5CC00",
"|  c #DEC907",
" . c #D2C50C",
".. c #EDC501",
"X. c #E4CD04",
"o. c #EDCB01",
"O. c #F4C301",
"+. c #F9C300",
"@. c #F6C900",
"#. c #F2CC01",
"$. c #F9C800",
"%. c #F8C900",
"&. c #FBC901",
"*. c #F9CA00",
"=. c #FCCA00",
"-. c #FDCA00",
";. c #FECB00",
":. c #FCC900",
">. c #F9CC00",
",. c #FBCF00",
"<. c #FECC00",
"1. c #FFCC00",
"2. c #FFCD00",
"3. c #FECE00",
"4. c #FFCE00",
"5. c #FFCE00",
"6. c #EDDA01",
"7. c #F3D400",
"8. c #F1D501",
"9. c #F9D000",
"0. c #FFD000",
"q. c #FED200",
"w. c #F9D600",
"e. c #FDD500",
"r. c #FED700",
"t. c #FED000",
"y. c #FADB00",
"u. c #FED800",
"i. c #FFD800",
"p. c #FFD900",
"a. c #FEDF00",
"s. c #FEDD00",
"d. c #F2C615",
"f. c #FBE300",
"g. c #FEE100",
"h. c #FEE300",
"j. c #FFE400",
"k. c #FCE700",
"l. c #FEE100",
"z. c #FEE900",
"x. c #F9EF00",
"c. c #FFEE00",
"v. c #FEEC00",
"b. c #FDEB00",
"n. c #FEF100",
"m. c #FFFB00",
"M. c #FFFE00",
"N. c #FEFC00",
"B. c #FCF70A",
"V. c #FEFE0C",
"C. c #EDC12D",
"Z. c #F1C722",
"A. c #EFDB3A",
"S. c #FBF529",
"D. c #FDFD2C",
"F. c #ECD250",
"G. c #FAF245",
"H. c #FDFC4B",
/* pixels */
", % % % % % % % % % % % % @ g P Y ) X.U 2 % % % % % % % % % % , ",
"%   .       .       .   O J 1.1.1.r.,.8.} + .       .       X % ",
"% . * * & , * * & , * ; j 1.1.1.1.` ` ` #.x ; * & , * * & r * % ",
"%   * * o o : : o o : 9 $.1.1.0.] ^ ^ ` _ 6.6 : o o : : % & * % ",
"%   % o     * %     - H 1.1.1.0.^ ~ ^ ` ` o.s %     * %   . % % ",
"%   : o   X , %   X 0 &.1.1.1.,.^ ~ ^ ' ` _  .%   X , %   o : % ",
"% . * : * r : : * r p 1.1.1.i.$.^ ~ ' ,.` _ 8.7 * r : : : y * % ",
"%   * : % % : : % % G 1.1.1.j.] ` ^ #.f.` ( #.e % % : : & * * % ",
"%   % o     * %     O.1.1.1.j.] ` ~ x.M.` ` _ z     * %   . % % ",
"%   : o   X , %   # 1.1.1.=.f.] ` ` M.M.O.` _ I   X , %   o : % ",
"% . * : * r : : * a 1.1.=.&.w.O.' @.m.m.y.` ( | * r : : : y * % ",
"%   * : % % : : % g 1.1.=.&.&.O.&.b.c.c.c.9.` o.% % : : & * * % ",
"%   % o     * %   f 1.1.&.@.+.O.s.j.j.g.g.g.O...    * %   . % % ",
"%   : o   X , %   v 1.=.O.O.' ( i.i.i.i.i.r.( _   X , %   o : % ",
"% . * : * r : : * T =.&.O.O.` V 1.1.1.1.1.1.Q ( * r : : : y * % ",
"%   * : % % : : % P =.O.O.O.^ V $.1.1.1.1.=.V ! % % : : & * * % ",
"%   % o     * %   J &.O._ O.~ W ' 1.1.1.1.+.C !     * %   . % % ",
"%   : o   X , %   F O.O._ _ ~ ~ E 1.1.1.1.` B !   X , %   o : % ",
"% . * : * r : : * R O._ ) _ ^ ^ c 1.0.0.0.^ B ! * r : : : y * % ",
"%   * : % % : : % h O._ / ) ^ A N s.g.g.g.' B ! % % : : & * * % ",
"%   % o     * %   u _ ) / / ~ B N b.n.n.n.O.N !     * %   . % % ",
"%   : o   X , %   3 _ / Y Y ~ B N B.V.V.V.O.N K   X , %   o : % ",
"% . * : * r : : * 0 ) / Y L ` B N S.D.D.D.d.B b * r : : : y * % ",
"%   * : % % : : % & Y Y P L ` B Z G.G.A.H.Z.C l % % : : & * * % ",
"%   % o     * %     h Y L L _ B Z F.D n [ C.W i     * %   . % % ",
"%   : o   X , %   X p P L L ) ~ M S W ! V m ( <   X , %   o : % ",
"% . * : * r : : * r 8 L L L P ^ B B C ! ! Q Y : * r : : : y * % ",
"%   * : % % : : % % > h L L L ' B B C W ! ( k : % % : : & * * % ",
"%   % %     * &     * 4 J L L ) ~ B B W Q ..q &     * &   . % % ",
"%   , * . o r * . o r = d L L P +.C B C ( { t * . o r * . % , % ",
"% X * * & : * * & : * * 1 F L L ) ] ~ ! o.w * * & : * * & , % % ",
", % % % % % % % % % % % % $ f J L _ 1.O.5 % % % % % % % % % % : "
};
