/* XPM */
static char *ag9nl_k98du_0[] = {
/* columns rows colors chars-per-pixel */
"32 32 162 2 ",
"   c #030303",
".  c #0C0B02",
"X  c #0B0C0C",
"o  c #151515",
"O  c #1D1D1D",
"+  c #201F1B",
"@  c #2D2502",
"#  c #392F04",
"$  c #232114",
"%  c #2C2B1F",
"&  c #36311C",
"*  c #3F3F1D",
"=  c #212121",
"-  c #2D2A20",
";  c #2C2C2C",
":  c #383321",
">  c #3D3D29",
",  c #343434",
"<  c #383735",
"1  c #3A3A31",
"2  c #3D3D3C",
"3  c #483E18",
"4  c #423B1D",
"5  c #413E31",
"6  c #434301",
"7  c #47411A",
"8  c #5E5018",
"9  c #655417",
"0  c #726E0C",
"q  c #766315",
"w  c #4C462D",
"e  c #554D2D",
"r  c #585821",
"t  c #47473F",
"y  c #534D37",
"u  c #6B5E28",
"i  c #6E6B23",
"p  c #766524",
"a  c #796827",
"s  c #424242",
"d  c #484848",
"f  c #806705",
"g  c #8C7001",
"h  c #88700D",
"j  c #957701",
"k  c #93770B",
"l  c #8D7512",
"z  c #837E11",
"x  c #987D11",
"c  c #977E1A",
"v  c #836F20",
"b  c #927A23",
"n  c #888400",
"m  c #838117",
"M  c #9E8918",
"N  c #A68101",
"B  c #A2850E",
"V  c #AC8C0D",
"C  c #AE9F0C",
"Z  c #B49106",
"A  c #BA9605",
"S  c #B59D01",
"D  c #B2910C",
"F  c #BF9708",
"G  c #B4980B",
"H  c #BE9B0C",
"J  c #A78A16",
"K  c #A68918",
"L  c #A49A1E",
"P  c #B89712",
"I  c #B39314",
"U  c #B5A50A",
"Y  c #BCAB0A",
"T  c #BDB60E",
"R  c #BCAF10",
"E  c #969221",
"W  c #C69F04",
"Q  c #C39F0C",
"!  c #DB9C05",
"~  c #DB950A",
"^  c #E28A0A",
"/  c #EC9500",
"(  c #E69C01",
")  c #EC9B00",
"_  c #E4910B",
"`  c #E29B0B",
"'  c #F09B00",
"]  c #C5A604",
"[  c #CFA402",
"{  c #C9A30B",
"}  c #D4AB01",
"|  c #DAAF01",
" . c #D0A50C",
".. c #C8B508",
"X. c #DDB200",
"o. c #D4B00B",
"O. c #E6A000",
"+. c #ECA400",
"@. c #ECAC00",
"#. c #E8A50D",
"$. c #EDAE0C",
"%. c #F4A500",
"&. c #F5AC00",
"*. c #F8AD00",
"=. c #E3B600",
"-. c #EDB400",
";. c #E6B901",
":. c #ECBB00",
">. c #E7BA08",
",. c #F4B300",
"<. c #F8B000",
"1. c #F3BC00",
"2. c #F9BC00",
"3. c #E8A416",
"4. c #EBAE15",
"5. c #E6A01E",
"6. c #E1B83C",
"7. c #D8C108",
"8. c #E6C503",
"9. c #EEC302",
"0. c #E5CD03",
"q. c #EDC900",
"w. c #F4C300",
"e. c #F8C500",
"r. c #F5CB00",
"t. c #FECC00",
"y. c #FFCC00",
"u. c #FECD00",
"i. c #FFCD00",
"p. c #FFCE00",
"a. c #FFCF00",
"s. c #FDCD00",
"d. c #FCCB00",
"f. c #EBD802",
"g. c #FAD300",
"h. c #FED100",
"j. c #F9D400",
"k. c #FED700",
"l. c #FFD700",
"z. c #FFD000",
"x. c #F7DB00",
"c. c #F0DD00",
"v. c #FAD900",
"b. c #FFD900",
"n. c #FDDA00",
"m. c #FBDD00",
"M. c #FDDD00",
"N. c #FEE300",
"B. c #FBE500",
"V. c #FEE500",
"C. c #FFE000",
"Z. c #FEE800",
"A. c #FFEF00",
"S. c #FCEE00",
"D. c #FDF300",
"F. c #FFF200",
"G. c #FEF900",
"H. c #FEFB0D",
"J. c #EDD63B",
"K. c #FDFC2D",
"L. c #E9C746",
"P. c #FCF84D",
/* pixels */
"2 = = = = = = = = = = = % z U G D V q % = = = = = = = = = = = 2 ",
"=   X       X       X . n c.v.k.p.p.e.j .   X       X       o = ",
"= X ; ; = 2 ; ; = 2 ; i f.1.,.2.p.p.p.t.l 2 ; ; = 2 ; ; = s ; = ",
"=   ; ; O O , , O O 1 T w.,.,.&.2.p.p.p.;.3 , , O O , , = ; ; = ",
"=   = O     ; =     r 0.-.,.*.%.*.p.p.p.p.g ; =     ; =   X = = ",
"=   , O   o 2 =   o E r.-.,.,.%.&.r.z.p.p.| y =   o 2 =   O , = ",
"= X ; , ; s , , ; t R 1.,.w.w.%.&.e.k.p.p.r.p , ; s , , , d ; = ",
"=   ; , = = , , = * 7.:.,.j.x.%.*.w.b.p.p.p.K , = = , , = ; ; = ",
"=   = O     ; =   6 8.-.,.B.S.&.,.1.m.p.p.p.{ -     ; =   X = = ",
"=   , O   o 2 =   0 9.-.2.D.G.1.,.1.v.p.p.p.>.4   o 2 =   O , = ",
"= X ; , ; s , , ; L 1.,.r.G.G.r.,.w.j.d.t.p.w.u ; s , , , d ; = ",
"=   ; , = = , , = C 1.w.V.A.A.Z.r.w.r.d.t.p.t.v = = , , = ; ; = ",
"=   = O     ; =   S :.v.N.N.N.V.M.w.e.r.e.p.p.l     ; =   X = = ",
"=   , O   o 2 =   ] @.j.k.k.k.b.b.-.,.w.w.t.p.B   o 2 =   O , = ",
"= X ; , ; s , , ; o.O.e.p.p.p.p.p.O.,.w.w.r.p.I ; s , , , d ; = ",
"=   ; , = = , , = } ( 2.p.p.p.p.e.( <.1.w.w.t.P = = , , = ; ; = ",
"=   = O     ; =   [ ( ,.p.p.p.p.,.O.*.1.:.w.r.D     ; =   X = = ",
"=   , O   o 2 =   [ ( +.t.p.t.p.@.+.*.:.;.w.e.V   o 2 =   O , = ",
"= X ; , ; s , , ;  ./ +.p.z.z.p.O.%.*.;.;.:.w.J ; s , , , d ; = ",
"=   ; , = = , , = F / +.M.N.N.M.O.' &.;.=.:.w.c = = , , = ; ; = ",
"=   = O     ; =   N / @.A.D.D.A.+./ %.=.=.;.:.q     ; =   X = = ",
"=   , O   o 2 =   k / @.H.H.H.H.+./ &.X.X.=.=.8   o 2 =   O , = ",
"= X ; , ; s , , ; b ( $.K.K.K.K.#./ &.| | =.} e ; s , , , d ; = ",
"=   ; , = = , , = 9 ( 4.P.J.J.P.3./ -.} | X.H 5 = = , , = ; ; = ",
"=   = O     ; =   @ ! 4.6.~ ` L.5.' -.} } X.x =     ; =   X = = ",
"=   , O   o 2 =   $ Q ( ! @.+._ ^ %.=.} } } a =   o 2 =   O , = ",
"= X ; , ; s , , ; s M @.@.@.) / / &.X.} } W w , ; s , , , d ; = ",
"=   ; , = = , , = = i ;.@.+.) / ) -.} } } k < , = = , , = ; ; = ",
"=   = =     ; =     > ..-.) ) / &.;.} } W # ; =     ; =   X = = ",
"=   2 ; X O s ; X O s m q.( / ' 1.| } } f + s ; X O s ; X = 2 = ",
"= o ; ; = , ; ; = , ; > Y 1.&.2.;.} } B : , ; ; = , ; ; = 2 = = ",
"2 = = = = = = = = = = = 7 Q :.} A Z h & = = = = = = = = = = = , "
};
