/* XPM */
static char *a9q5t_yazjz[] = {
/* columns rows colors chars-per-pixel */
"15 32 115 2 ",
"   c None",
".  c #DB950A",
"X  c #E28A0A",
"o  c #ED9400",
"O  c #E49C03",
"+  c #EC9A00",
"@  c #E4910B",
"#  c #E29B0B",
"$  c #F09B00",
"%  c #D4AA00",
"&  c #D9AE00",
"*  c #DDB200",
"=  c #E5A000",
"-  c #EBA300",
";  c #EDAD00",
":  c #E8A50D",
">  c #F4A500",
",  c #F4AC00",
"<  c #F8AD00",
"1  c #E3B500",
"2  c #ECB400",
"3  c #E6B800",
"4  c #EBBC00",
"5  c #EFB00B",
"6  c #F4B400",
"7  c #F8B000",
"8  c #F2BC00",
"9  c #F9BC00",
"0  c #E8A416",
"q  c #EBAD17",
"w  c #E6A01E",
"e  c #EEB113",
"r  c #E2B93C",
"t  c #EFC100",
"y  c #F4C300",
"u  c #F8C500",
"i  c #F4CC00",
"p  c #FBCD00",
"a  c #F9CC00",
"s  c #FDCC00",
"d  c #FECC00",
"f  c #FFCC00",
"g  c #FECD00",
"h  c #FFCD00",
"j  c #FDCE00",
"k  c #FECE00",
"l  c #FFCE00",
"z  c #FFCF00",
"x  c #FCCA00",
"c  c #F3D000",
"v  c #F3D300",
"b  c #F9D300",
"n  c #FBD300",
"m  c #FDD000",
"M  c #FED000",
"N  c #FFD000",
"B  c #FFD100",
"V  c #F9D400",
"C  c #FED400",
"Z  c #FFD600",
"A  c #FED700",
"S  c gold",
"D  c #F5DA00",
"F  c #F5DB00",
"G  c #F7DB00",
"H  c #F6DF00",
"J  c #F4DC00",
"K  c #FAD800",
"L  c #FBDA00",
"P  c #FADB00",
"I  c #FFD800",
"U  c #FFD900",
"Y  c #FDDA00",
"T  c #FBDD00",
"R  c #FDDD00",
"E  c #FEDD00",
"W  c #F6E200",
"Q  c #F7E300",
"!  c #F6E500",
"~  c #FEE000",
"^  c #FFE000",
"/  c #FEE200",
"(  c #FEE300",
")  c #FFE300",
"_  c #FBE500",
"`  c #FFE400",
"'  c #FDE600",
"]  c #F8E000",
"[  c #F7ED00",
"{  c #FEE800",
"}  c #FAED00",
"|  c #FDEE00",
" . c #FDEF00",
".. c #FEEF00",
"X. c #FFEF00",
"o. c #F9F200",
"O. c #FDF300",
"+. c #FEF200",
"@. c #FFF200",
"#. c #FDF900",
"$. c #FEF800",
"%. c #FEFA00",
"&. c #FDF90C",
"*. c #FDF90D",
"=. c #FFFD0D",
"-. c #FEFD0E",
";. c #ECD53B",
":. c #EED73A",
">. c #FCF92B",
",. c #FCF92C",
"<. c #FFFF2E",
"1. c #FEFF2F",
"2. c #E9C746",
"3. c #FBF84D",
"4. c #FCF84D",
/* pixels */
"          ' C d d             ",
"      o.W K C d d d d         ",
"      W 8 6 9 d d d d         ",
"    [ y 6 6 , 9 d d d d       ",
"    D 8 6 < > < B d d d d     ",
"    i 6 6 6 > , x B d d d     ",
"  ! 8 6 u u > , u C d d d     ",
"  D 8 6 b D > < u Y d d d d   ",
"  c 6 6 _ } , 6 9 T d d d d   ",
"  y 6 9 O.#.8 6 9 K d d d d   ",
"! y 6 x #.#.i 6 u V p d d d   ",
"H 8 u ' X.X.{ x u x p d d d   ",
"c 8 K / / / ' E u u a u d d   ",
"i ; b C C C Y Y 2 6 u u d d d ",
"y = u d d d d d = 6 u y x d d ",
"y + 9 d d d d u O 6 8 y u d d ",
"8 + 6 d d d d 6 = < 8 4 u d d ",
"8 + - d d d d ; - < 4 3 y u x ",
"8 + - d B B d = > < 3 3 4 u u ",
"8 + - E / / E = $ , 3 3 4 y u ",
"8 + , X.O.O.X.- o > 1 1 3 4   ",
"8 + ; &.-.-.&.- o > * * 3 4   ",
"  + 5 ,.<.<.>.: o , & & 1 3   ",
"  - e 4.:.:.3.0 o 2 % & * 3   ",
"  ; q r . # 2.w $ 2 % % * 1   ",
"  8 O O ; - @ X > 1 % % &     ",
"  i ; ; ; + o o , * % % %     ",
"    t ; - + o + 2 % % % %     ",
"    H 2 - + o > 3 % % %       ",
"      i + o $ 9 & % % %       ",
"      ] 8 , 9 3 % % %         ",
"        p x 4 % % %           "
};
