/* XPM */
static char *a2jkv_7adoy[] = {
/* columns rows colors chars-per-pixel */
"15 32 113 2 ",
"   c None",
".  c #DC9508",
"X  c #E18A0A",
"o  c #ED9400",
"O  c #E49D03",
"+  c #EC9B00",
"@  c #E59109",
"#  c #E29A09",
"$  c #F19E00",
"%  c #D4AA00",
"&  c #D9AE00",
"*  c #DDB100",
"=  c #E5A100",
"-  c #ECA300",
";  c #ECAD01",
":  c #F3A500",
">  c #F5AB00",
",  c #E3B500",
"<  c #EDB300",
"1  c #E7B900",
"2  c #EBBC00",
"3  c #F4B300",
"4  c #F9B500",
"5  c #F3BB00",
"6  c #F8BE00",
"7  c #F0B40D",
"8  c #E8A910",
"9  c #E8A71A",
"0  c #ECB01A",
"q  c #F0B616",
"w  c #E5A322",
"e  c #E1B53A",
"r  c #EFC000",
"t  c #F4C300",
"y  c #F9C500",
"u  c #F5CB00",
"i  c #FACF00",
"p  c #F8CE00",
"a  c #FECC00",
"s  c #FFCC00",
"d  c #FECD00",
"f  c #FFCD00",
"g  c #FCCE00",
"h  c #FDCF00",
"j  c #FECE00",
"k  c #FFCE00",
"l  c #FECF00",
"z  c #FFCF00",
"x  c #FDCA00",
"c  c #F5D600",
"v  c #F7D600",
"b  c #F9D100",
"n  c #FCD000",
"m  c #FFD000",
"M  c #FED100",
"N  c #FFD100",
"B  c #FCD200",
"V  c #FDD300",
"C  c #FFD300",
"Z  c #FAD700",
"A  c #FED500",
"S  c #FED600",
"D  c #FFD600",
"F  c gold",
"G  c #F6DB00",
"H  c #F7DB00",
"J  c #F4DB00",
"K  c #F9D800",
"L  c #FED800",
"P  c #FBDC00",
"I  c #FCDC00",
"U  c #FCDD00",
"Y  c #FEDF00",
"T  c #F6E100",
"R  c #F7E200",
"E  c #F8E000",
"W  c #FEE000",
"Q  c #FEE100",
"!  c #FFE100",
"~  c #FFE200",
"^  c #FEE600",
"/  c #F9E000",
"(  c #F7E900",
")  c #FCE800",
"_  c #FDE800",
"`  c #FEEA00",
"'  c #F8ED00",
"]  c #FAED00",
"[  c #FEED00",
"{  c #FFED00",
"}  c #F9F100",
"|  c #FBF100",
" . c #FEF100",
".. c #FEF200",
"X. c #FFF300",
"o. c #FEF400",
"O. c #FDF600",
"+. c #FEF800",
"@. c #FFF900",
"#. c #FDFB00",
"$. c #FEFB0E",
"%. c #FEFB0F",
"&. c #FFFD0E",
"*. c #FEFE0F",
"=. c #EBD039",
"-. c #EDD439",
";. c #FDFB2D",
":. c #FDFA2F",
">. c #FEFF2F",
",. c #FEFF30",
"<. c #E9C544",
"1. c #FBF94E",
"2. c #FCF94F",
/* pixels */
"          a a s S ^ ]         ",
"        s s s s C p G }       ",
"      a s s s a 4 3 5 G       ",
"      s s s C 4 > 3 4 t (     ",
"    s s s s s > : > 4 5 c     ",
"    s s s C y > : 3 4 3 t ]   ",
"  a s s s L y > : u y 4 5 T   ",
"  s s s s I 6 > : E Z 3 5 c   ",
"  s s s s P 6 3 3 } ` 4 3 u   ",
"  s s a C K 6 4 5 #.O.6 3 t ( ",
"  s s a p b t 5 c #.#.b 3 5 T ",
"a s s u p u t p ` { { ` u 5 G ",
"a s a y u 6 u I Q Q Q Q I 5 u ",
"a s a y y 3 < S S S S S C ; t ",
"s a y t t > = s s s s s y = t ",
"s a y r 5 > O y s s s s 6 + 5 ",
"a y t 2 5 > + 5 s s s s 3 + 5 ",
"u y t 2 5 > - ; s s s s - + 5 ",
"y t 2 1 2 > : = C C C s : o 5 ",
"t r 2 , 2 > + - I Q Q Q > o 5 ",
"t 2 1 , 1 : o ;  . .O. .3 o 5 ",
"  2 1 * , : o ; $.&.&.$.3 o 5 ",
"  1 , & & > o 8 :.>.,.:.7 + 6 ",
"  , * % % ; o 9 1.-.=.2.q -   ",
"  * & % % < o w <.# . e 0 >   ",
"  * & % % 1 $ X @ - ; O O 5   ",
"    % % % * > o o + ; ; ; u   ",
"    % % % & 3 + o + - ; t     ",
"      % % % 2 : o + - < G     ",
"      % % % * 6 $ o + u       ",
"        % % % 1 6 > 5 E       ",
"          % % % 2 a p         "
};
