/* XPM */
static char *ayxah_k1wdn_2[] = {
/* columns rows colors chars-per-pixel */
"28 32 159 2 ",
"   c None",
".  c #CC7500",
"X  c #CC7A00",
"o  c #C66D14",
"O  c #D48700",
"+  c #D88E00",
"@  c #DB9203",
"#  c #D59F06",
"$  c #DA900C",
"%  c #CC891E",
"&  c #D39216",
"*  c #DE9711",
"=  c #E48C00",
"-  c #E98F00",
";  c #E58F08",
":  c #E49500",
">  c #ED9500",
",  c #E49C01",
"<  c #ED9B00",
"1  c #E1980C",
"2  c #F09700",
"3  c #F19A00",
"4  c #DDA300",
"5  c #D4AA00",
"6  c #D9AE00",
"7  c #DDB100",
"8  c #E3A300",
"9  c #EDA300",
"0  c #EDAC00",
"q  c #F5A500",
"w  c #F6AC00",
"e  c #F8AF00",
"r  c #E2B500",
"t  c #EDB200",
"y  c #E7B900",
"u  c #EBBC00",
"i  c #F5B400",
"p  c #F8B700",
"a  c #F4BB00",
"s  c #F9BB00",
"d  c #C98026",
"f  c #E09821",
"g  c #D9A635",
"h  c #E1A829",
"j  c #EFC100",
"k  c #F5C400",
"l  c #FAC500",
"z  c #F3CB00",
"x  c #FFCC00",
"c  c #FECD00",
"v  c #FFCD00",
"b  c #FECC00",
"n  c #FECE00",
"m  c #FFCE00",
"M  c #FFCF00",
"N  c #FCCA00",
"B  c #F2D300",
"V  c #F7D100",
"C  c #F5D300",
"Z  c #FAD100",
"A  c #F8D200",
"S  c #FBD300",
"D  c #FED000",
"F  c #FFD000",
"G  c #FED100",
"H  c #FCD200",
"J  c #FFD300",
"K  c #FBD500",
"L  c #F8D600",
"P  c #FAD700",
"I  c #FDD400",
"U  c #FFD400",
"Y  c #FFD500",
"T  c #FED700",
"R  c gold",
"E  c #FAD400",
"W  c #F5D900",
"Q  c #F5DB00",
"!  c #F7DA00",
"~  c #F3DD00",
"^  c #F5DC00",
"/  c #F3DA00",
"(  c #F8D900",
")  c #FBD900",
"_  c #F8DB00",
"`  c #FBDA00",
"'  c #FADA00",
"]  c #FFD800",
"[  c #FFD900",
"{  c #FFDB00",
"}  c #F8DE00",
"|  c #FFDC00",
" . c #FEDC00",
".. c #FEDF00",
"X. c #F9DC00",
"o. c #F9DE0A",
"O. c #F6E300",
"+. c #FEE100",
"@. c #FFE100",
"#. c #FEE000",
"$. c #FEE200",
"%. c #FEE300",
"&. c #FFE300",
"*. c #F9E500",
"=. c #FBE500",
"-. c #F9E700",
";. c #FBE600",
":. c #FEE400",
">. c #FFE400",
",. c #FFE500",
"<. c #FDE600",
"1. c #F9E000",
"2. c #F8EA00",
"3. c #FAEA00",
"4. c #FDE800",
"5. c #FEE900",
"6. c #FDEA00",
"7. c #FEEA00",
"8. c #F9ED00",
"9. c #FBED00",
"0. c #FAEE00",
"q. c #FEED00",
"w. c #FFED00",
"e. c #FFEE00",
"r. c #F9EB00",
"t. c #FAF000",
"y. c #FAF200",
"u. c #FEF000",
"i. c #FEF100",
"p. c #FFF100",
"a. c #FEF200",
"s. c #FFF200",
"d. c #FFF300",
"f. c #FAF500",
"g. c #FAF600",
"h. c #FAF700",
"j. c #FAF400",
"k. c #FAF800",
"l. c #FAF900",
"z. c #FEF900",
"x. c #FDFA00",
"c. c #FEFA00",
"v. c #FFFA00",
"b. c #FFFB00",
"n. c #FEFE00",
"m. c #FFFE00",
"M. c #FEFE0D",
"N. c #E5C32F",
"B. c #F8DE20",
"V. c #EED737",
"C. c #F8DE33",
"Z. c #FDFD2E",
"A. c #E9CB4C",
"S. c #F5D947",
"D. c #EBD356",
"F. c #F2E440",
"G. c #F7EE44",
"H. c #FDFD4C",
"J. c #FBFA6D",
/* pixels */
"                    b N R | ,.4.2.8.                    ",
"              b b b b R R N N N S ` 2.y.f.              ",
"            b b b b b p w w i i i p a z 2.f.            ",
"          b b J R s q q w w w i i i p a k ! k.          ",
"        b b J | l w q q q w w w i i p p a a ! k.        ",
"      b b b ,.N i w w q q q w k p i i p p a a ! k.      ",
"      b b ,.` p i w w q q q 0 8.4.i i i p p a k O.k.    ",
"    b b R d.k p i i w w q q B m.m.z i i i p a a z f.    ",
"    b b w.;.k a p i i w w t x.m.m.x.a i i i p a a ^ f.  ",
"  b b R d.V k a p i i i 0 ~ m.m.m.m.;.i i i p a a k y.  ",
"  b b ] ,.k k k a p i i z x.x.x.x.x.x.L i i i i a a *.  ",
"  b b | S a k k k l S 4.w.w.w.w.w.w.w.w.4.` l p i a V y.",
"b b b ] l p a k S | &.&.&.&.&.&.&.&.&.&.&.&.&.L a 0 u y.",
"b b b J i i @ 8 ] ] ] ] ] ] ] R R R R R R R R J 8 9 0 8.",
"b b N b w w 0 X l b b b b b b b b b b b b b b t : 9 9 ;.",
"b N N l w w i : + b b b b b b b b b b b b b b : < < 9 ^ ",
"N N l l q q w i . i b b b b b b b b b b b b 0 > < < 9 ! ",
"l k k l w q q w 9 O b b b b b b b b b b b b : < < < 9 ` ",
"k k k b w q q q w . a J J J J J b b J J J a > < < < 9 ` ",
"k k k b e q 3 3 < = 4 &.&.&.&.&.&.&.&.&.&.N > > > < 9 ` ",
"  k j N i 2 > > > - 4 d.d.d.d.d.d.d.d.d.d.L < > > > 0 L ",
"  j u k s > > > > - # M.M.M.M.M.M.M.M.M.M.o.< > > > a S ",
"  u u u l 3 > > > - & Z.Z.Z.Z.Z.Z.Z.Z.Z.Z.B.< < > > k   ",
"    y y l w > > > > % H.H.H.G.V.N.F.H.H.H.C.9 < < 9 N   ",
"    y y u b < > > > d J.A.h 1 , , @ & g D.S.9 < 9 k     ",
"      r r k i > > > o f ; > 9 9 0 t 0 , $ * 9 9 a L     ",
"      r 7 r b q > > > > > > < 9 9 0 t t 0 0 9 t `       ",
"        7 6 y l q > > > > > < < 9 0 0 t t 0 u 1.        ",
"          6 6 u l q > > > > > < < 9 0 0 t j 2.2.        ",
"            5 5 y b p < > > > > < 9 9 t / f.            ",
"              5 5 r k l s w q q q i z } 8.              ",
"                  5 5 r k N b b N N L                   "
};
