/* XPM */
static char *aljfx_zzrqu_0[] = {
/* columns rows colors chars-per-pixel */
"32 32 197 2 ",
"   c black",
".  c #010000",
"X  c #000100",
"o  c #000001",
"O  c #010101",
"+  c #020202",
"@  c #030202",
"#  c #020302",
"$  c #030302",
"%  c #020203",
"&  c #030203",
"*  c #020303",
"=  c gray1",
"-  c #040404",
";  c #050404",
":  c #040405",
">  c #050405",
",  c gray2",
"<  c #060606",
"1  c #060706",
"2  c #070706",
"3  c #060607",
"4  c #070707",
"5  c gray3",
"6  c #080909",
"7  c #090909",
"8  c #0B0B0B",
"9  c #0E0E0E",
"0  c #0F0E0E",
"q  c #0E0F0E",
"w  c #0E0E0F",
"e  c gray8",
"r  c #151414",
"t  c #151514",
"y  c #151415",
"u  c #151515",
"i  c gray11",
"p  c #1C1D1C",
"a  c #1D1D1C",
"s  c #1C1C1D",
"d  c #1D1D1D",
"f  c #1E1E1E",
"g  c #1F1E1E",
"h  c #1E1F1E",
"j  c #202020",
"k  c #212020",
"l  c #202120",
"z  c #212120",
"x  c #202021",
"c  c #212021",
"v  c #202121",
"b  c gray13",
"n  c #222222",
"m  c #232222",
"M  c #222322",
"N  c #222223",
"B  c #252524",
"V  c #242425",
"C  c #252425",
"Z  c #252525",
"A  c gray15",
"S  c #272626",
"D  c #292828",
"F  c #292928",
"G  c #282829",
"H  c gray16",
"J  c #2A2A2A",
"K  c #2A2B2A",
"L  c #2B2B2A",
"P  c #2A2A2B",
"I  c #2A2B2B",
"U  c gray17",
"Y  c #2C2C2C",
"T  c #2C2D2C",
"R  c #2D2D2C",
"E  c #2C2C2D",
"W  c #2D2C2D",
"Q  c #2C2D2D",
"!  c #2D2D2D",
"~  c gray18",
"^  c #2E2F2E",
"/  c #2F2F2F",
"(  c gray19",
")  c #313130",
"_  c #303031",
"`  c #313131",
"'  c #323232",
"]  c #323332",
"[  c #323233",
"{  c #353534",
"}  c #343435",
"|  c #353435",
" . c #343535",
".. c #353535",
"X. c gray21",
"o. c #373636",
"O. c #363736",
"+. c #373736",
"@. c #363637",
"#. c #373637",
"$. c #373737",
"%. c #393938",
"&. c #393939",
"*. c #3A3A3A",
"=. c gray23",
"-. c #3C3C3C",
";. c gray24",
":. c #3E3E3E",
">. c #3E3F3E",
",. c #655514",
"<. c #685815",
"1. c #725E11",
"2. c #766313",
"3. c gray25",
"4. c #414140",
"5. c #414041",
"6. c #414141",
"7. c #454445",
"8. c #444545",
"9. c gray27",
"0. c #484848",
"q. c #484849",
"w. c #816803",
"e. c #886F0C",
"r. c #8C7102",
"t. c #937603",
"y. c #9B7D01",
"u. c #95790A",
"i. c #86711B",
"p. c #927A17",
"a. c #AE8C01",
"s. c #A2840B",
"d. c #AF8E08",
"f. c #AC8D0B",
"g. c #B79300",
"h. c #B29005",
"j. c #BF9900",
"k. c #BF9A04",
"l. c #BD9906",
"z. c #BC9809",
"x. c #BF9C0D",
"c. c #AB8E18",
"v. c #B59412",
"b. c #B99813",
"n. c #C69F00",
"m. c #C6A007",
"M. c #C8A102",
"N. c #CAA202",
"B. c #CDA400",
"V. c #CCA404",
"C. c #CEA607",
"Z. c #D3A903",
"A. c #D4AA00",
"S. c #D6AB00",
"D. c #D7AC00",
"F. c #D2A905",
"G. c #D4AA04",
"H. c #D5AC06",
"J. c #D7AD06",
"K. c #D9AE00",
"L. c #DAAF00",
"P. c #D8AE05",
"I. c #D4AB0B",
"U. c #DBB000",
"Y. c #DDB200",
"T. c #DEB302",
"R. c #DEB203",
"E. c #DFB303",
"W. c #DAB005",
"Q. c #DCB105",
"!. c #DFB305",
"~. c #DDB308",
"^. c #DFB40B",
"/. c #DAB10C",
"(. c #D0A910",
"). c #E0B300",
"_. c #E3B600",
"`. c #E0B503",
"'. c #E4B700",
"]. c #E1B504",
"[. c #E7BA00",
"{. c #E7BB03",
"}. c #E9BB00",
"|. c #EABC00",
" X c #E9BC02",
".X c #EBBD02",
"XX c #EABC03",
"oX c #EDBE00",
"OX c #EDBE03",
"+X c #E8BC07",
"@X c #E4B809",
"#X c #E5B909",
"$X c #EDC005",
"%X c #F2C200",
"&X c #F6C600",
"*X c #FBC900",
"=X c #FDCB00",
/* pixels */
"=.j j j j j j j j j j j j <.H.P.H.2.j j j j j j j j j j j j j :.",
"j   5     < 9     < 9     w.=X=X=Xt.9     < 9     < 9     < u j ",
"j 5 H ^ Z =.^ ^ Z =.^ ^ Z c.=X=X=Xb.^ ^ Z =.^ ^ Z =.^ ^ Z 6.H j ",
"j   ^ ^ f f ` ` f f ` ` f f.=X=X=Xz.` ` f f ` ` f f ` ` j H ^ j ",
"j   j f     H j     H j   a.=X=X=Xj.H j     H j     H j < 5 j j ",
"j < X.f < u :.j < u :.j < l.=X=X=XC.:.j < u :.j < u :.j < f X.j ",
"j 9 ^ ` ^ 6.X.X.^ 6.X.X.^ (.=X=X=X/.X.X.^ 6.X.X.^ 6.X.X.` 0.^ j ",
"j   ^ ` j j X.X.j j X.X.j C.=X=X=XW.X.X.j j X.X.j j X.X.Z H ^ j ",
"j   j f     H j     H j   B.=X=X=XK.H j     H j     H j < 5 j j ",
"j < X.f < u :.j < u :.j < G.=X=X=X_.:.j < u :.j < u :.j < f X.j ",
"j 9 ^ ` ^ 6.X.X.^ 6.X.X.^ ^.=X=X=X+XX.X.^ 6.X.X.^ 6.X.X.` 0.^ j ",
"j   ^ ` j j X.X.j j X.X.j Q.=X=X=X[.X.X.j j X.X.j j X.X.Z H ^ j ",
"j   j f     H j     H j   K.=X=X=X[.H j     H j     H j < 5 j j ",
"j < X.f < u :.j < u :.j < R.=X=X=X|.:.j < u :.j < u :.j < f X.j ",
"j 9 ^ ` ^ 6.X.X.^ 6.X.X.^ #X=X=X=X$XX.X.^ 6.X.X.^ 6.X.X.` 0.^ j ",
"j   ^ ` j j X.X.j j X.X.j ].=X=X=XoXX.X.j j X.X.j j X.X.Z H ^ j ",
"j   j f     H j     H j   R.=X=X=X|.H j     H j     H j < 5 j j ",
"j < X.f < u :.j < u :.j < R.=X=X=X|.:.j < u :.j < u :.j < f X.j ",
"j 9 ^ ` ^ 6.X.X.^ 6.X.X.^ #X=X=X=X$XX.X.^ 6.X.X.^ 6.X.X.` 0.^ j ",
"j   ^ ` j j X.X.j j X.X.j Q.=X=X=X|.X.X.j j X.X.j j X.X.Z H ^ j ",
"j   j f     H j     H j   A.*X*X*X_.H j     H j     H j < 5 j j ",
"j < X.f < u :.j < u :.j < Z.&X&X&XR.:.j < u :.j < u :.j < f X.j ",
"j 9 ^ ` ^ 6.X.X.^ 6.X.X.^ I.%X%X%X~.X.X.^ 6.X.X.^ 6.X.X.` 0.^ j ",
"j   ^ ` j j X.X.j j X.X.j m.oXoXoXF.X.X.j j X.X.j j X.X.Z H ^ j ",
"j   j f     H j     H j   g.}.}.}.n.H j     H j     H j < 5 j j ",
"j < X.f < u :.j < u :.j < h.'.'.'.l.:.j < u :.j < u :.j < f X.j ",
"j 9 ^ ` ^ 6.X.X.^ 6.X.X.^ v.).).).x.X.X.^ 6.X.X.^ 6.X.X.` 0.^ j ",
"j   ^ ` j j X.X.j j X.X.j s.U.U.U.f.X.X.j j X.X.j j X.X.Z H ^ j ",
"j   j j < < ^ Z < < ^ Z < r.D.D.D.y.^ Z < < ^ Z < < ^ Z < 5 j j ",
"j < :.H 5 f 8.H 5 f 8.H 5 e.A.A.A.u.8.H 5 f 8.H 5 f 8.H 5 j =.j ",
"j u H ^ Z X.^ ^ Z X.^ ^ Z i.A.A.A.p.^ ^ Z X.^ ^ Z X.^ ^ Z :.j j ",
":.j j j j j j j j j j j j ,.M.M.M.1.j j j j j j j j j j j j j ` "
};
