/* XPM */
static char *agxol_rpfaq[] = {
/* columns rows colors chars-per-pixel */
"32 32 154 2 ",
"   c None",
".  c #C46F00",
"X  c #C67500",
"o  c #CC7700",
"O  c #CB7D00",
"+  c #CA760F",
"@  c #CA7B0B",
"#  c #D07207",
"$  c #C97211",
"%  c #CC8101",
"&  c #D28400",
"*  c #D78D06",
"=  c #D88F00",
"-  c #DE8A0E",
";  c #DE9501",
":  c #DB920E",
">  c #D18B10",
",  c #E48B00",
"<  c #E98F00",
"1  c #E39300",
"2  c #EA9300",
"3  c #E59A00",
"4  c #EA9B00",
"5  c #F19E00",
"6  c #E5A400",
"7  c #EBA300",
"8  c #E4AB00",
"9  c #EBAC00",
"0  c #F1A300",
"q  c #F1AC00",
"w  c #EDB500",
"e  c #E7BA00",
"r  c #EFBA00",
"t  c #F1B400",
"y  c #F2BB00",
"u  c #D78D20",
"i  c #D39623",
"p  c #DCA125",
"a  c #DBAD28",
"s  c #DDB026",
"d  c #DBAF3C",
"f  c #EFC600",
"g  c #EDCD00",
"h  c #F3C400",
"j  c #F8C500",
"k  c #F4CB00",
"l  c #FACD00",
"z  c #F8CF00",
"x  c #FACE00",
"c  c #FBCF00",
"v  c #F9CD00",
"b  c #FAC800",
"n  c #EFD600",
"m  c #F5D000",
"M  c #F7D200",
"N  c #F5D500",
"B  c #F7D500",
"V  c #F5D700",
"C  c #F7D600",
"Z  c #F6D600",
"A  c #F9D100",
"S  c #FAD000",
"D  c #FAD100",
"F  c #FBD100",
"G  c #F8D200",
"H  c #FAD200",
"J  c #FBD300",
"K  c #F9D500",
"L  c #FAD500",
"P  c #F4D900",
"I  c #F6D900",
"U  c #F5DD00",
"Y  c #F9D900",
"T  c #F9DA00",
"R  c #F9DB00",
"E  c #F9DC00",
"W  c #FADC00",
"Q  c #FADD00",
"!  c #F9DF00",
"~  c #F9DE00",
"^  c #FADE00",
"/  c #FADF00",
"(  c #F9DB00",
")  c #F5DD0B",
"_  c #F1E300",
"`  c #F6E000",
"'  c #F6E500",
"]  c #F8E100",
"[  c #F9E300",
"{  c #FAE300",
"}  c #FAE400",
"|  c #F9E600",
" . c #FAE600",
".. c #FAE700",
"X. c #F9E500",
"o. c #F7E900",
"O. c #F7EA00",
"+. c #F7EB00",
"@. c #F9E900",
"#. c #FAE800",
"$. c #FAE900",
"%. c #F9EA00",
"&. c #F8EB00",
"*. c #F9EC00",
"=. c #F9ED00",
"-. c #F9EE00",
";. c #F9EF00",
":. c #FAEE00",
">. c #FAEF00",
",. c #F9EE00",
"<. c #F5F000",
"1. c #F9F000",
"2. c #F8F100",
"3. c #FAF000",
"4. c #F8F200",
"5. c #F9F200",
"6. c #F9F300",
"7. c #FAF200",
"8. c #FAF400",
"9. c #FAF500",
"0. c #F9F600",
"q. c #F8F700",
"w. c #FAF600",
"e. c #F9F600",
"r. c #F9F900",
"t. c #FAF800",
"y. c #FAF900",
"u. c #FAFA00",
"i. c #FAFB00",
"p. c #FBFB00",
"a. c #F7F30D",
"s. c #FAF90D",
"d. c #FAF90E",
"f. c #FAFA0E",
"g. c #FAFA0F",
"h. c #FAFC10",
"j. c #F4DC21",
"k. c #E7CB36",
"l. c #E5CB39",
"z. c #F4DD39",
"x. c #F5F02B",
"c. c #F9FA2E",
"v. c #FAFB30",
"b. c #E4BE42",
"n. c #EDCE44",
"m. c #E6CE56",
"M. c #EEDF5C",
"N. c #F0E546",
"B. c #F3EC49",
"V. c #F7F64E",
"C. c #F9FB4F",
"Z. c #F7F550",
"A. c #F9FC52",
"S. c #ECDF61",
/* pixels */
"                        T W W ] } #.-.3.                        ",
"                  v A A v k h h h v C ` #.3.q.                  ",
"                b j y q q q q q t t t y h N o.q.i.              ",
"            K v y 0 0 0 0 q q q q t t t t y h I 3.i.            ",
"          W A t 0 0 5 0 0 0 q q q q t t t y y y k o.i.          ",
"        } C t q q 0 0 5 0 0 0 7 k t q t t t y y y h o.i.        ",
"      -.] y t q q q 0 0 5 0 4 g i.I q q t t t y y y h o.i.      ",
"      -.k t t t q q q 0 0 4 e q.i.i.M q q t t t y y y k 3.i.    ",
"    i.` y y t t t q q q 7 8 <.i.i.i.q.h q q t t t y y y I q.    ",
"    -.k y y y t t t q q 6 _ i.i.i.i.i.3.y q q t t t y y h #.q.  ",
"  } I h h h y y t t t y n q.q.q.q.q.q.q.#.k y t t t t y y C q.  ",
"  W h y y h y y h k T } #.#.#.#.#.#.#.} #.#.] C h y t t t h -.  ",
"K A t t r r k M T W W W W W W W W W W W W W W W W T v w 9 9 U 3.",
"v h q t 7 O h A A A A A A A A A A A A A A A A A A A y ; 7 7 k -.",
"b y 0 q q & % j b b b b b b b b b b b b b b b b b h 1 3 7 7 h #.",
"b t 0 0 q 9 o ; b b b b b b b b b b b b b b b b b 7 1 4 4 4 r } ",
"b t 5 0 0 q 7 . 9 b b b b b b b b b b b b b b b t , 4 4 4 4 r ] ",
"b y 5 5 0 0 q 1 X y b b b b b b b b b b b b b j 1 2 2 4 4 4 r W ",
"b y 5 5 5 0 0 7 o = v v v v v v v v v v v v v y 2 2 2 2 4 4 y W ",
"b j 0 5 4 2 2 4 , O T W W W W W W W W W W W W k 2 2 2 2 2 4 h T ",
"  j 7 2 2 2 2 2 , % #.-.-.-.-.-.3.3.3.3.3.3.3.C 4 2 2 2 2 4 v   ",
"  j q 2 2 2 2 2 , % a.d.d.d.d.d.d.d.d.d.d.d.h.) 4 2 2 2 2 9 A   ",
"    j 4 2 2 2 2 , @ x.c.c.c.c.c.v.v.v.v.c.v.v.j.4 4 2 2 2 y v   ",
"    b q 2 2 2 2 < + B.C.A.V.N.k.s a l.N.Z.A.A.z.4 4 4 2 9 b     ",
"      j 7 2 2 2 < $ S.M.b.p : ; 3 ; * > i d m.n.7 4 4 7 h v     ",
"      b y 4 2 2 2 # u - , 2 4 7 7 9 9 9 6 ; * : 7 4 7 h K       ",
"        b y 4 2 2 < < 2 2 2 2 4 4 7 9 9 9 9 9 9 7 9 k T         ",
"          b y 4 2 2 2 2 2 2 2 2 4 4 7 9 9 9 9 9 r C }           ",
"            b j q 2 2 2 2 2 2 2 2 4 7 7 9 9 w g ' -.            ",
"                j y q 4 2 2 2 2 2 2 4 7 9 f ` q.q.              ",
"                  b b j y t q 7 7 q t k C } -.                  ",
"                        b b b j j b v K                         "
};
