/* XPM */
static char *atz8k_porko[] = {
/* columns rows colors chars-per-pixel */
"32 32 137 2 ",
"   c None",
".  c #000000",
"X  c #010101",
"o  c #030303",
"O  c #040404",
"+  c #050505",
"@  c #060606",
"#  c #070707",
"$  c #090909",
"%  c #0A0A0A",
"&  c #0B0B0B",
"*  c #0C0C0C",
"=  c #0E0E0E",
"-  c #121212",
";  c #141414",
":  c #161616",
">  c #171717",
",  c #181818",
"<  c #1A1A1A",
"1  c #1E1E1E",
"2  c #212121",
"3  c #272727",
"4  c #282828",
"5  c #2A2A2A",
"6  c #2E2E2E",
"7  c #343434",
"8  c #353535",
"9  c #393939",
"0  c #3B3B3B",
"q  c #3D3D3D",
"w  c #3E3E3E",
"e  c #414141",
"r  c #434343",
"t  c #454545",
"y  c #464646",
"u  c #474747",
"i  c #494949",
"p  c #4D4D4D",
"a  c #4E4E4E",
"s  c #585858",
"d  c #595959",
"f  c #5A5A5A",
"g  c #5B5B5B",
"h  c #646464",
"j  c #656565",
"k  c #686868",
"l  c #696969",
"z  c #6B6B6B",
"x  c #6C6C6C",
"c  c #6D6D6D",
"v  c #6E6E6E",
"b  c #6F6F6F",
"n  c #727272",
"m  c #747474",
"M  c #767676",
"N  c #787878",
"B  c #7A7A7A",
"V  c #7B7B7B",
"C  c #808080",
"Z  c #838383",
"A  c #848484",
"S  c #868686",
"D  c #888888",
"F  c #898989",
"G  c #8A8A8A",
"H  c #8B8B8B",
"J  c #8C8C8C",
"K  c #8D8D8D",
"L  c #8F8F8F",
"P  c #909090",
"I  c #919191",
"U  c #929292",
"Y  c #959595",
"T  c #969696",
"R  c #989898",
"E  c #999999",
"W  c #9A9A9A",
"Q  c #9B9B9B",
"!  c #9C9C9C",
"~  c #9D9D9D",
"^  c #9E9E9E",
"/  c #9F9F9F",
"(  c #A0A0A0",
")  c #A1A1A1",
"_  c #A3A3A3",
"`  c #A4A4A4",
"'  c #A5A5A5",
"]  c #A6A6A6",
"[  c #A7A7A7",
"{  c #A9A9A9",
"}  c #AAAAAA",
"|  c #ABABAB",
" . c #ACACAC",
".. c #ADADAD",
"X. c #AEAEAE",
"o. c #AFAFAF",
"O. c #B0B0B0",
"+. c #B1B1B1",
"@. c #B2B2B2",
"#. c #B4B4B4",
"$. c #B5B5B5",
"%. c #B6B6B6",
"&. c #B7B7B7",
"*. c #B9B9B9",
"=. c #BBBBBB",
"-. c #BCBCBC",
";. c #BDBDBD",
":. c #BEBEBE",
">. c #BFBFBF",
",. c #C0C0C0",
"<. c #C1C1C1",
"1. c #C2C2C2",
"2. c #C3C3C3",
"3. c #C4C4C4",
"4. c #C5C5C5",
"5. c #C6C6C6",
"6. c #C7C7C7",
"7. c #C8C8C8",
"8. c #C9C9C9",
"9. c #CACACA",
"0. c #CBCBCB",
"q. c #CCCCCC",
"w. c #CDCDCD",
"e. c #CECECE",
"r. c #CFCFCF",
"t. c #D1D1D1",
"y. c #D2D2D2",
"u. c #D3D3D3",
"i. c #D6D6D6",
"p. c #DBDBDB",
"a. c #DCDCDC",
"s. c #DEDEDE",
"d. c #DFDFDF",
"f. c #E0E0E0",
"g. c #E1E1E1",
"h. c #E3E3E3",
"j. c #E5E5E5",
/* pixels */
"                                                                ",
"                                                                ",
"                                                                ",
"                                                                ",
"                                                                ",
"                                                                ",
"                                O.                              ",
"                        f p V 5.} Q 7.i.                        ",
"                      i 9 4 V ( ' ~ :.d.i.                      ",
"                    ; u e j J D o.} &.i.d.                      ",
"                    ; 4 f P Q ' &.} *.,.e.u.                    ",
"                  , & w j S Y o.*.:.5.:.,.7.5.                  ",
"                  & * u k J ~ o.&.,.7.u.u.u.e.                  ",
"                  . . 8 b D ( } o.&.5.e.f.p.i.e.                ",
"                  . . ; f S Q Q Q O.5.,.f.j.u.u.                ",
"                  . . + w b D Y P } :.e.d.f.5.7.                ",
"                . . . . 1 p n J P ( O.:.e.e.&.:.                ",
"                . . . . & u k D P ~ o.O.O.&.*.O.                ",
"                . . . . & e k S P ~ ( ~ } :.5.}                 ",
"                . . . . + 6 k S J ' } ~ } ,.:.}                 ",
"                  . . . . 3 p V V b ~ ( Q o.&.o.                ",
"                  . . . . - 8 m V i m ' Q ' '                   ",
"                  . . . . + ; V Q k j C Y Q D                   ",
"                    . . . . . u Q C f 9 s k                     ",
"                    . . . . . * u V D b b b                     ",
"                        . . . . * p S C J                       ",
"                          . . . . & , 2                         ",
"                                                                ",
"                                                                ",
"                                                                ",
"                                                                ",
"                                                                "
};
