/* XPM */
static char *anni1_hh5an[] = {
/* columns rows colors chars-per-pixel */
"32 32 87 1 ",
"  c None",
". c #242211",
"X c #252211",
"o c #282412",
"O c #342F16",
"+ c #533D25",
"@ c #533D26",
"# c #543E26",
"$ c #553E26",
"% c #543F26",
"& c #543E27",
"* c #563F26",
"= c #5A4227",
"- c #594328",
"; c #5C4528",
": c #5D4528",
"> c #5E4629",
", c #5E4729",
"< c #644D2B",
"1 c #654D2B",
"2 c #684F2C",
"3 c #886D3A",
"4 c #917138",
"5 c #907039",
"6 c #907139",
"7 c #917139",
"8 c #927139",
"9 c #937139",
"0 c #917239",
"q c #927239",
"w c #91713A",
"e c #92713A",
"r c #93713A",
"t c #92703B",
"y c #92723A",
"u c #93723A",
"i c #92733A",
"p c #92723B",
"a c #93723B",
"s c #93733B",
"d c #97773D",
"f c #9C7C3F",
"g c #876F46",
"h c #9E7E40",
"j c #A48442",
"k c #B6954B",
"l c #C5A553",
"z c #C8A754",
"x c #CEAD57",
"c c #CDAE5C",
"v c #D1B057",
"b c #D1B058",
"n c #D1B158",
"m c #D1B059",
"M c #D2B058",
"N c #D2B158",
"B c #D3B158",
"V c #D2B059",
"C c #D3B059",
"Z c #D2B159",
"A c #D3B159",
"S c #D2B15A",
"D c #D6B55B",
"F c #D3B25C",
"G c #D7B966",
"H c #DDC071",
"J c #E1C77B",
"K c #E3C980",
"L c #E5CA83",
"P c #E6CC85",
"I c #E6CD86",
"U c #E8D08A",
"Y c #E8D08B",
"T c #E9D18C",
"R c #EBD38F",
"E c #EBD490",
"W c #EAD491",
"Q c #EBD491",
"! c #EBD492",
"~ c #EBD592",
"^ c #EBD593",
"/ c #ECD492",
"( c #ECD592",
") c #EDD592",
"_ c #ECD493",
"` c #ECD593",
"' c #EDD593",
/* pixels */
"              9999              ",
"          99#ZZZZZZ#99          ",
"        9#ZZZZZZZZZZZZ#9        ",
"       ,ZZZZZZZZZZZZZZ-Z,       ",
"     9#ZZZZZ9ZZZZZZZZZ#ZZ#9     ",
"    9#ZZZZZZ9ZZZZZZZZx=@ZZ#9    ",
"    #ZZZZZ99ZZZZxZj99###ZZZ#    ",
"   ,ZZZZZZ9ZZZZZZZ9@..##ZZZZ,   ",
"  9ZZZZZZZZ(ZdZZZZZ#9.@lZZZZZ9  ",
"  #ZZZZQZZZ(Z9ZZZZZZ9#9ZZZZZZ#  ",
" 9ZZZZZ(Gg9Z99ZZZZZZZZ#ZZZZZZZ9 ",
" 9ZZZZ9((o9ZZZZP.ZZZZZ#ZzZZZZZ9 ",
" #ZZZZ((ZZZZZ9O..Z((Q(ZZ9ZZZZZ# ",
" ZZZZZ((PZZZZZZZZT((((ZZkZZZZZZ ",
"9ZZZZv((...Z(ZQ(((((((ZZZZZZZZZ9",
"9ZZZZ((#..#ZZZ(((((((((fZZZZZZZ9",
"9ZZZZ((#..DZZZ((((((((UZ99ZZZZZ9",
"9ZZZZF((..#ZZZ((((((((9Z9ZZZZZZ9",
" ZZZZZ((######Z(((((((999ZZZZZZ ",
" #ZZZZ((v#ZZZZQ((((((9999ZZZZZ# ",
" 9ZZZZ(((ZZZZ(((((((c99#hZZZZZ9 ",
" 9ZZZZ(Z((Z(((((((Z(Q9#9ZZZZZZ9 ",
"  #ZZZ(ZZ(((((((ZZ(((9#ZZZdZZ#  ",
"  9ZZZ((QZZZZZZZZZZQZ3ZZZZ9ZZ9  ",
"   <ZZ((((ZZZZZZZZZZZH((Z99Z<   ",
"    #Z((((ZZZZZZZZZZZ(((Z99#    ",
"    9#((((ZZZZZZZZZJ((((99#9    ",
"     9#((QZZZZZZL((((((99#9     ",
"       2(ZZZZZZ(((((((U92       ",
"        9#ZZ(Z(((((((Z#9        ",
"          99#QT((KZ#99          ",
"              9999              "
};
