/* XPM */
static char *a8yc2_so8lf[] = {
/* columns rows colors chars-per-pixel */
"32 32 193 2 ",
"   c None",
".  c #E62D19",
"X  c #EC2E18",
"o  c #F52F16",
"O  c #FA2D12",
"+  c #FE2F11",
"@  c #FC2F12",
"#  c #E7311B",
"$  c #EB3019",
"%  c #EA311B",
"&  c #EA331A",
"*  c #EC3019",
"=  c #EC3119",
"-  c #ED3119",
";  c #EE3019",
":  c #EC301A",
">  c #EE311A",
",  c #EC321B",
"<  c #EE321A",
"1  c #EE321B",
"2  c #EC341B",
"3  c #E8311C",
"4  c #E9311C",
"5  c #EF341C",
"6  c #EF341D",
"7  c #EE361D",
"8  c #EF371D",
"9  c #EE351E",
"0  c #EE361E",
"q  c #EF361E",
"w  c #EF371E",
"e  c #EE361F",
"r  c #F33216",
"t  c #F33316",
"y  c #F53117",
"u  c #F73116",
"i  c #F43217",
"p  c #F63216",
"a  c #F73216",
"s  c #F73316",
"d  c #F63217",
"f  c #F73217",
"g  c #F63317",
"h  c #F73317",
"j  c #F43417",
"k  c #FA3013",
"l  c #FB3013",
"z  c #FD3113",
"x  c #FE3112",
"c  c #F93115",
"v  c #FA3014",
"b  c #FB3014",
"n  c #FA3114",
"m  c #FB3114",
"M  c #FA3015",
"N  c #FB3115",
"B  c #F83215",
"V  c #F93215",
"C  c #FB3214",
"Z  c #FA3215",
"A  c #FB3215",
"S  c #FA3315",
"D  c #FB3315",
"F  c #F93116",
"G  c #F83216",
"H  c #F93216",
"J  c #F83217",
"K  c #F93217",
"L  c #F83317",
"P  c #F93317",
"I  c #FA3216",
"U  c #FA3316",
"Y  c #FB3316",
"T  c #FA3317",
"R  c #FB3317",
"E  c #FD3014",
"W  c #FC3114",
"Q  c #FC3115",
"!  c #FD3115",
"~  c #FC3214",
"^  c #FC3215",
"/  c #FD3215",
"(  c #FC3315",
")  c #FE3314",
"_  c #FC3216",
"`  c #FC3316",
"'  c #FC3317",
"]  c #F83417",
"[  c #F93417",
"{  c #FB3416",
"}  c #FA3417",
"|  c #FB3417",
" . c #FD3417",
".. c #F03119",
"X. c #F13119",
"o. c #F23118",
"O. c #F33118",
"+. c #F23119",
"@. c #F33119",
"#. c #F13218",
"$. c #F13319",
"%. c #F33218",
"&. c #F23318",
"*. c #F33318",
"=. c #F33319",
"-. c #F0311A",
";. c #F1331A",
":. c #F2321A",
">. c #F3331A",
",. c #F43118",
"<. c #F53119",
"1. c #F43218",
"2. c #F53218",
"3. c #F43318",
"4. c #F43319",
"5. c #F63318",
"6. c #F73318",
"7. c #F4331B",
"8. c #F7331A",
"9. c #F33418",
"0. c #F33419",
"q. c #F1341A",
"w. c #F0351B",
"e. c #F2341A",
"r. c #F3341B",
"t. c #F3351B",
"y. c #F43418",
"u. c #F43419",
"i. c #F63419",
"p. c #F73419",
"a. c #F5341A",
"s. c #F4351A",
"d. c #F5351A",
"f. c #F4341B",
"g. c #F5351B",
"h. c #F6341A",
"j. c #F6351A",
"k. c #F6351B",
"l. c #F5361A",
"z. c #F5361B",
"x. c #F4371B",
"c. c #F6361B",
"v. c #F7361B",
"b. c #F0341C",
"n. c #F1341C",
"m. c #F0351C",
"M. c #F0341D",
"N. c #F1341D",
"B. c #F0351D",
"V. c #F2351C",
"C. c #F3351C",
"Z. c #F2351D",
"A. c #F3351D",
"S. c #F1361C",
"D. c #F0361D",
"F. c #F1361D",
"G. c #F1371D",
"H. c #F2361C",
"J. c #F2361D",
"K. c #F3361D",
"L. c #F2371D",
"P. c #F0361E",
"I. c #F1361E",
"U. c #F0371E",
"Y. c #F1371E",
"T. c #F3361E",
"R. c #F2361F",
"E. c #F4351C",
"W. c #F5351C",
"Q. c #F6351C",
"!. c #F4361C",
"~. c #F5361D",
"^. c #F4371D",
"/. c #F6361C",
"(. c #F6361D",
"). c #F7361D",
"_. c #F83218",
"`. c #F83318",
"'. c #F83418",
"]. c #F93418",
"[. c #F83419",
"{. c #F93419",
"}. c #F83519",
"|. c #F93519",
" X c #FA3418",
".X c #FB3418",
"XX c #FA3518",
"oX c #F8351A",
"OX c #F9351A",
"+X c #F8351B",
"@X c #F2381F",
"#X c #EB3620",
"$X c #EE3620",
/* pixels */
"                                                                ",
"                                                                ",
"                                                                ",
"                                                                ",
"          K.j.W.7     K.j.j.K.    K.      K.  K.j.j.j.$.        ",
"        7 j.K.t.j.    j.K.K.j.    (     j.T   ( j.7 K.,         ",
"        |.j.    K.  j.|.    j.j.  z T   ( T   (                 ",
"        T j.        ] T     h h   @ ( T z l   l                 ",
"        T $.  7 7   T T     h h   @ $.j.h O   @ h 2 %           ",
"        T $.  j.( $.h T     T h   l     r T   @ h K.t.          ",
"        T 5.    T $.h ( W.j.( h   T     r T   l                 ",
"        |.j.    ] t.h T     T 5.  T     $.T   T                 ",
"        K.j.  K.j.  |.T     |.j.  T     t.]   ( t.              ",
"          K.W.W.7   7 K.    7 7   K.      K.  K.W.W.5.$.        ",
"                                                                ",
"                                                            #X  ",
"                                                            |.$.",
"    W.W.W.7   W.K.    j.K.7 |.W.j.j.K.  |.W.W.W.          j.( $.",
"  j.K.    j.  |.5.    ] j.$.T           (     7 j.        ] ( t.",
"  ]       (   ] h     ] j $.T           T       (         T |.  ",
"  ]       T   T h     T h $.T           T       (       W. .K.  ",
"  ]       T   j.5.    |.$.$.z j.W.K.    T       ]       W.|.    ",
"  T       T     j.    j.  5.T           ( t.$Xt.K.              ",
"  T       T     K.N.j.K.  5.T           z j.j.(                 ",
"  T       _.      _.5.    5.T           T     T       o         ",
"  , 5.$.5.$.      ,       $.T $., , 4   T     , $.    O         ",
"    % , ,                   % , , X     4       #     .         ",
"                                                                ",
"                                                                ",
"                                                                ",
"                                                                ",
"                                                                "
};
