/* XPM */
static char *au9ov_xzvua[] = {
/* columns rows colors chars-per-pixel */
"32 32 124 2 ",
"   c None",
".  c #6E594F",
"X  c #6F5A50",
"o  c #6F5A51",
"O  c #705B52",
"+  c #705C51",
"@  c #715C52",
"#  c #715D52",
"$  c #715D53",
"%  c #725D52",
"&  c #725D53",
"*  c #725E53",
"=  c #725E54",
"-  c #735F54",
";  c #725F56",
":  c #736054",
">  c #736056",
",  c #746055",
"<  c #756155",
"1  c #756256",
"2  c #766256",
"3  c #776356",
"4  c #726B56",
"5  c #746158",
"6  c #746258",
"7  c #76645B",
"8  c #76655D",
"9  c #76655E",
"0  c #757A5B",
"q  c #757A5C",
"w  c #796961",
"e  c #7A6A62",
"r  c #7B6C66",
"t  c #7C6D66",
"y  c #7F726D",
"u  c #767676",
"i  c #777777",
"p  c #777A75",
"a  c #787878",
"s  c #7A797A",
"d  c #7A7A7A",
"f  c #7E7E7E",
"g  c #7E7E7F",
"h  c #7F7F7F",
"j  c #80736F",
"k  c #807B6A",
"l  c #867873",
"z  c #887A75",
"x  c #7D9C67",
"c  c #7D9E67",
"v  c #7D9F67",
"b  c #7E9968",
"n  c #7D996A",
"m  c #7D9D68",
"M  c #7D9E68",
"N  c #7D9F68",
"B  c #7E9F68",
"V  c #7F9E6A",
"C  c #7F9F6A",
"Z  c #788173",
"A  c #7E8877",
"S  c #809F6C",
"D  c #87817D",
"F  c #8E837E",
"G  c #83A06F",
"H  c #848484",
"J  c #878787",
"K  c #8A8481",
"L  c #8F8480",
"P  c #888888",
"I  c #8A8A8A",
"U  c #8E8E8E",
"Y  c #8F8F8F",
"T  c #918682",
"R  c #928884",
"E  c #948B87",
"W  c #908C8B",
"Q  c #948C88",
"!  c #958C88",
"~  c #909090",
"^  c #919191",
"/  c #929292",
"(  c #939393",
")  c #949292",
"_  c #949494",
"`  c #959595",
"'  c #969696",
"]  c #969797",
"[  c #979797",
"{  c #9A9D92",
"}  c #9A9B99",
"|  c #9A9A9A",
" . c #9B9B9B",
".. c #9C9C9C",
"X. c #9D9D9D",
"o. c #9E9E9E",
"O. c #90A581",
"+. c #9FAC96",
"@. c #9EA799",
"#. c #A0AC98",
"$. c #A0A0A0",
"%. c #A1A1A1",
"&. c #A3A3A3",
"*. c #A6A6A6",
"=. c #A7A7A7",
"-. c #A9AEA6",
";. c #A8A8A8",
":. c #A9A9A9",
">. c #AAAAAA",
",. c #ABABAB",
"<. c #ACACAC",
"1. c #ADADAD",
"2. c #ADADAE",
"3. c #AEAEAE",
"4. c #AFAFAF",
"5. c #B0B0B0",
"6. c #B1B1B1",
"7. c #B2B2B2",
"8. c #B3B2B2",
"9. c #B3B3B3",
"0. c #B4B3B4",
"q. c #B3B4B4",
"w. c #B4B4B4",
"e. c #B4B5B5",
/* pixels */
"                                                                ",
"                                                                ",
"                        f J ( ' ' '                             ",
"                ' ' ' ' ( J J *.,.,.$.o.                        ",
"              ' ' '  .,.5.4.,.5.w.w.w.5.4.*.                    ",
"            ( ' ' $.5.w.5.5.w.5.5.5.w.w.w.4.,.                  ",
"            f P o.5.w.w.w.5.5.5.5.5.5.5.5.4.5.5.                ",
"            i a o.w.w.w.w.5.w.,. .4.w.5.5.5.w.w.                ",
"            i i ( 5.5.5.5.5.5.*.( ,.w.5.5.5.w.w.                ",
"            i i P 5.5.5.w.4. .' ( ' o.5.5.5.w.w.                ",
"              i J 5.5.5.w.5.$.o.' o.$.5.5.5.5.                  ",
"              i f 4.w.5.w.w.w.,.( 4.w.5.5.5.5.                  ",
"              i a *.w.5.w.w.w.,.( 4.w.5.5.5.5.                  ",
"              a a $.w.5.w.w.w.,.( 4.w.5.5.5.5.                  ",
"              i a ' ,.5.5.5.w.,.' 4.w.w.5.5.5.                  ",
"                i P ,.5.5.5.5.5.5.5.w.w.w.w.5.                  ",
"            v   i P 5.w.q.w.w.w.w.w.5.5.5.w.5.                  ",
"            v n p J 5.w.q.5.5.w.w.w.5.5.5.0.                    ",
"            v m Z f ,.5.5.5.5.w.w.w.w.5.w.w.O.                  ",
"          m v S A a $.w.5.5.5.0.w.w.5.5.5.-.G                   ",
"          v m +. .a $.w.5.5.5.5.5.5.5.5.4.@.S                   ",
"          m n {  .U o.q.w.w.w.w.5.w.w.w.w.#.m v                 ",
"          q 4 D ' ' ) ! R L ! F l T E F z k q 4                 ",
"          o o y W K r - 8 o o o o o o o o O j 8 o               ",
"          # # # 6 - # 6 e # # - e - # # # # t 8 # #             ",
"            # # # # # # # - - - , - - - - - # # # # #           ",
"              - , , : , , , , , - - , , , , , , , , :           ",
"                , , , , , , , , , , , , , , , , , , , ,         ",
"                  , , , , , , , , , , , , , , , , , ,           ",
"                        , , , , , , , , , , , ,                 ",
"                                                                ",
"                                                                "
};
