/* XPM */
static char *atli3_4gjbu[] = {
/* columns rows colors chars-per-pixel */
"32 32 200 2 ",
"   c None",
".  c #1B1B1B",
"X  c #351A1D",
"o  c #3A1F22",
"O  c #3D262B",
"+  c #3E2527",
"@  c #202C36",
"#  c #323131",
"$  c #393736",
"%  c #3C3A39",
"&  c #27323B",
"*  c #412529",
"=  c #44292B",
"-  c #432C33",
";  c #473139",
":  c #4A343C",
">  c #47393A",
",  c #583C3D",
"<  c #523537",
"1  c #45413F",
"2  c #2A3D4B",
"3  c #453C42",
"4  c #4D3941",
"5  c #4F3640",
"6  c #543E43",
"7  c #5D3C44",
"8  c #5E3F49",
"9  c #603947",
"0  c #633D49",
"q  c #2E4353",
"w  c #334A5B",
"e  c #314655",
"r  c #3A444C",
"t  c #3B5569",
"y  c #444444",
"u  c #41474C",
"i  c #4C4A49",
"p  c #4C4546",
"a  c #5E4143",
"s  c #544C4C",
"d  c #5C4C4F",
"f  c #554248",
"g  c #484D51",
"h  c #594D52",
"j  c #535253",
"k  c #5B5253",
"l  c #5C5B5B",
"z  c #5A5758",
"x  c #614445",
"c  c #6B424B",
"v  c #664B4A",
"b  c #6D514E",
"n  c #674C54",
"m  c #655353",
"M  c #6A5656",
"N  c #665A55",
"B  c #645759",
"V  c #635B5C",
"C  c #6F5B5D",
"Z  c #745253",
"A  c #775B59",
"S  c #72484D",
"D  c #67605E",
"F  c #7C625C",
"G  c #7D6057",
"H  c #4F5260",
"J  c #555A61",
"K  c #735D78",
"L  c #566874",
"P  c #636262",
"I  c #6B6664",
"U  c #6B6866",
"Y  c #6C6C6C",
"T  c #676869",
"R  c #716464",
"E  c #766B68",
"W  c #75726F",
"Q  c #7A746F",
"!  c #7E6A70",
"~  c #757474",
"^  c #7B7571",
"/  c #7E7872",
"(  c #7A7B7B",
")  c #656970",
"_  c #825551",
"`  c #875953",
"'  c #8D5C57",
"]  c #9D585E",
"[  c #A64F5F",
"{  c #8A6759",
"}  c #986659",
"|  c #AC6D5D",
" . c #A2705B",
".. c #985A64",
"X. c #AC5A64",
"o. c #836C66",
"O. c #866F66",
"+. c #906B63",
"@. c #827065",
"#. c #8C736B",
"$. c #8C796C",
"%. c #887268",
"&. c #937663",
"*. c #9B7A65",
"=. c #94667F",
"-. c #817A75",
";. c #817E7C",
":. c #8A7F74",
">. c #997E79",
",. c #A77B66",
"<. c #B37E60",
"1. c #B37F6D",
"2. c #AC7677",
"3. c #B77575",
"4. c #A76B71",
"5. c #86807B",
"6. c #898078",
"7. c #928375",
"8. c #BC8764",
"9. c #BD8866",
"0. c #B88767",
"q. c #BE906F",
"w. c #A38D75",
"e. c #A98671",
"r. c #B88E70",
"t. c #BD9474",
"y. c #B69379",
"u. c #BA9A7C",
"i. c #AC9379",
"p. c #C19472",
"a. c #C39D7B",
"s. c #CF9D7A",
"d. c #C29877",
"f. c #CAA17F",
"g. c #7B578C",
"h. c #7B5392",
"j. c #4D6D81",
"k. c #5A778C",
"l. c #567689",
"z. c #47758F",
"x. c #7A7E81",
"c. c #8D7980",
"v. c #80619D",
"b. c #B27F80",
"n. c #9567BC",
"m. c #A574D6",
"M. c #A66FE0",
"N. c #698799",
"B. c #668496",
"V. c #7491A2",
"C. c #7A98AE",
"Z. c #7AB5D6",
"A. c #848483",
"S. c #87818B",
"D. c #928981",
"F. c #978D85",
"G. c #949391",
"H. c #9C9896",
"J. c #B68886",
"K. c #A6998E",
"L. c #A99A8F",
"P. c #A98F9F",
"I. c #AA9D91",
"U. c #AC8A82",
"Y. c #AFA195",
"T. c #A5A19E",
"R. c #ABA49E",
"E. c #B6A699",
"W. c #BBAA9C",
"Q. c #B2A397",
"!. c #909DA1",
"~. c #8DAFBE",
"^. c #A3A2A2",
"/. c #ADAAA7",
"(. c #A9A8A8",
"). c #AAA6A3",
"_. c #B4ABA5",
"`. c #BCAEA3",
"'. c #B6AEA8",
"]. c #B8AFA8",
"[. c #BCB1A8",
"{. c #BBA3B2",
"}. c #C6A482",
"|. c #C9A183",
" X c #D1A383",
".X c #C1AFA1",
"XX c #C4B2A2",
"oX c #CAB6A6",
"OX c #C8B7A8",
"+X c #CBB8A8",
"@X c #C6B6A8",
"#X c #D5BCA6",
"$X c #DCC6B1",
"%X c #95B4C7",
"&X c #98BFD7",
"*X c #9BC2DD",
"=X c #ACC3CD",
"-X c #AFC7D3",
";X c #B4CAD4",
":X c #9FCCE4",
/* pixels */
"            5.Q       ].].[.[.[.].].].].      -.-.              ",
"          l ] 3.>.W +X+X+X+X+X+X+X+X+X+XW.l U.3.' l             ",
"        T.^ ..[ X.4.Q E.XXE.K.K.K.W.XXL.@.3.X.[ ..;.(.          ",
"        ^ oX3.J._.^.H.U I F.oX#XoX6.I ~ H.(.`.b.J.E.U           ",
"    l / XXOX).( l D #.#.#.#.#.#.#.#.#.#.o.l l A._.@XW.I         ",
"  l F.oXW.l o.#.v + x O.Z x b %.v x A F , X F #.E W +XoX-.l     ",
"  l D.`.H.a x x 6 - X , = X * 7 o X < < o ; 7 x x M (.`./ l     ",
"  l P k O a : ; 6 m m 4 O.G O X - &.A 6 m d 4 ; : , O V l l     ",
"  l l s - + ; d c.P.9 9 ,.y.{ : *.u.+.9 n {.! f - * - j l l     ",
"  l ~ ~ p X - { |.#Xs.s.f.}.}.}.}.}.f.s. X$Xp.=.g.g.h.S.Y l     ",
"    ~ A.~ O f 8 S } 1.t.a.}.}.}.}.}.a.r.,.' K n.m.m.M.v.K       ",
"      ~ A.( R Q $.*.q.{ } | | | | | } } r.&.o.6 + : A.P         ",
"          ^ j g P ( ~ ~ 7.w.i.}.w.w.:.~ ~ x.J 3 h Q             ",
"    l / XX+Xu w w u XX_.~ ;.G.P T.W A._.I.@ t 2 P oXW.I         ",
"    I 6.XX+Xu t t u +X+X2.2.K.P W.4.J.+XY.@ L w P oX.XW         ",
"  l D.XX+X+Xu q e g +X+X+X@XK.P W.oX+X+XY.& w 2 P +X+XXX/ l     ",
"  l D.XXXX+XW.l J (.(.`._.(.G.P ^.(._.`.(.(.r ^ .XoXXXXX/ l     ",
"7 k A.(./.XX_.~ -.XXoXoXXX_.G.P ^.`.@XoXoXXXU A._.`.(.(.~ d 7   ",
"}.}.r.&.Y Y Y D.Q.XXXXXX_./.G.P T._.`.XXXXXXY.5.Y Y Y *.t.}.e.9 ",
"8.a.}.d.<._ B F.XXOX].`.`.XXK.P W.XX`._.].+XXX-.M ' 9.a.}.p. .9 ",
"  _ ` ` _   z F.[.OX[._._._.H.P R._._._.[.+X[.;.k c ` ` ` Z     ",
"            : 3 l A.A._.[.[.H.P _.[.[.T.A.A.j 3 :               ",
"            : s s % $ i i i y y y i i p $ % k f :               ",
"            : h V B i % # > 1 . s $ # > s V V s                 ",
"                  9 x x x x a 5 a x x x x 9                     ",
"                  Z }.q.9.9. .c <.9.9.p.y.0                     ",
"                  Z }.}.}.p. .c <.a.}.}.y.0                     ",
"                  E }.}.}.p.,.C 0.a.}.}.u.C                     ",
"                  k N N $.@.m B m $.@.N N d                     ",
"                &X%X;X=X~.H.,.C 0.!.%X=X-X%X*X                  ",
"            Z.k.J I T R R L z.  z.) R I T R H C.:X              ",
"              k.N.V.V.B.k.j.      j.k.N.V.V.B.j.                "
};
