/* XPM */
static char *a42pn_ywbnb[] = {
/* columns rows colors chars-per-pixel */
"32 32 17 1 ",
"  c black",
". c #060606",
"X c gray3",
"o c #0E0E0E",
"O c #151515",
"+ c #1E1E1E",
"@ c #202020",
"# c #252525",
"$ c gray16",
"% c #2E2F2E",
"& c #313131",
"* c gray21",
"= c gray23",
"- c #3E3E3E",
"; c #414141",
": c #444545",
"> c #484848",
/* pixels */
"=@@@@@@@@@@@@@@@@@@@@@@@@@@@@@@-",
"@ X  .o  .o  .o  .o  .o  .o  .O@",
"@X$%#=%%#=%%#=%%#=%%#=%%#=%%#;$@",
"@ %%++&&++&&++&&++&&++&&++&&@$%@",
"@ @+  $@  $@  $@  $@  $@  $@.X@@",
"@.*+.O-@.O-@.O-@.O-@.O-@.O-@.+*@",
"@o%&%;**%;**%;**%;**%;**%;**&>%@",
"@ %&@@**@@**@@**@@**@@**@@**#$%@",
"@ @+  $@  $@  $@  $@  $@  $@.X@@",
"@.*+.O-@.O-@.O-@.O-@.O-@.O-@.+*@",
"@o%&%;**%;**%;**%;**%;**%;**&>%@",
"@ %&@@**@@**@@**@@**@@**@@**#$%@",
"@ @+  $@  $@  $@  $@  $@  $@.X@@",
"@.*+.O-@.O-@.O-@.O-@.O-@.O-@.+*@",
"@o%&%;**%;**%;**%;**%;**%;**&>%@",
"@ %&@@**@@**@@**@@**@@**@@**#$%@",
"@ @+  $@  $@  $@  $@  $@  $@.X@@",
"@.*+.O-@.O-@.O-@.O-@.O-@.O-@.+*@",
"@o%&%;**%;**%;**%;**%;**%;**&>%@",
"@ %&@@**@@**@@**@@**@@**@@**#$%@",
"@ @+  $@  $@  $@  $@  $@  $@.X@@",
"@.*+.O-@.O-@.O-@.O-@.O-@.O-@.+*@",
"@o%&%;**%;**%;**%;**%;**%;**&>%@",
"@ %&@@**@@**@@**@@**@@**@@**#$%@",
"@ @+  $@  $@  $@  $@  $@  $@.X@@",
"@.*+.O-@.O-@.O-@.O-@.O-@.O-@.+*@",
"@o%&%;**%;**%;**%;**%;**%;**&>%@",
"@ %&@@**@@**@@**@@**@@**@@**#$%@",
"@ @@..%#..%#..%#..%#..%#..%#.X@@",
"@.-$X+:$X+:$X+:$X+:$X+:$X+:$X@=@",
"@O$%#*%%#*%%#*%%#*%%#*%%#*%%#-@@",
"-@@@@@@@@@@@@@@@@@@@@@@@@@@@@@@&"
};
