/* XPM */
static char *a5t0a_imm3h[] = {
/* columns rows colors chars-per-pixel */
"32 32 16 1 ",
"  c black",
". c #040404",
"X c #040405",
"o c #080707",
"O c gray4",
"+ c #0D0B0B",
"@ c gray5",
"# c #101010",
"$ c #141313",
"% c #161616",
"& c #161716",
"* c #181717",
"= c #181818",
"- c #1C1A1A",
"; c #1D1D1C",
": c #201E1E",
/* pixels */
"%%%=;::;=%%%%%%%%%%%%%%%%%%%%%%%",
"%%%=;::;=%%%%%%%%%%%%%%%%%%%%%%%",
"%%%=;::;=%%%%%%%%%%%%%%%%%%%%%%%",
"%%%*-;;=$###%%%%%%%%*==%####%%%%",
"%%%%*==$OXXO#%%%%%%*-;;%OXXO#%%%",
"%%%%%%%#X  X#%%%%%%=;::*o  X#%%%",
"%%%%%%%#X  X#%%%%%%=;::*o  X#%%%",
"####%%%#OXXO#%%%###%-::=@XXO#%%%",
"XXXO#%%%####%%%#OXX@=::-%###%%%%",
"   X#%%%%%%%%%%#X  o*::;=%%%%%%%",
"   X#%%%%%%%%%%#X  o*::;=%%%%%%%",
"XXXO#%%%#######@XXXO%;;=$#%%####",
"####%%%#OXXXXXXXO@@#%==$OO@@OXXX",
"%%%%%%%#X      X@###%%%#OXOOX   ",
"%%%%%%%#X      X@###%%%%@OXXOO  ",
"####%%%#X   XooO+@@@%%%%@O X@@OX",
"XXXO#%%#X  X#**#OXXO#%%#O  X#%##",
"   X#%%#X  o*::*o  X#%%#X  X#%%%",
"   X#%%#X  o*::*o  X#%%#X  X#%%%",
"   X#%%#OXXO%;;%X  X#==#X  X#%%%",
"   X#%%%@@@#%==#X  X%;;%X  X#%%%",
"   X#%%%####%%%#X  o*::*o  X#%%%",
"   X#%%%####%%%#X  o*::*o  X#%%%",
"   X#%%%@@@@#%%#X  X%;;%X  X@###",
"   X#%%#OXXO@##@X  X#==#X   XXXX",
"ooo@%==#X  X@##@X  X#%%#X       ",
"***=-;;%X  X@##@X  X#%%#X       ",
":::::::*o  X@##@X  X#%%#X       ",
":::::::*o  X@##@X  X@##@X OOX   ",
"***=-;;%X  X@##@X  X@##@X OO    ",
"ooo@%==#X  X@##@X  X@##@X  X    ",
"   X#%%#X  X@##@X  X@##@X       "
};
